<svg width="458" height="484" viewBox="0 0 458 484" fill="none" xmlns="http://www.w3.org/2000/svg">
<path d="M422.364 191.914C418.768 220.255 407.726 247.279 381.445 269.201C339.965 303.819 303.673 302.174 284.239 311.002C217.52 341.333 213.417 393.327 142.772 412.84C124.938 417.767 105.676 419.217 88.0119 413.703C70.3456 408.179 54.5424 394.973 48.8832 377.37C38.4375 344.895 63.6829 311.51 63.498 277.395C63.3589 253.894 51.2381 232.419 41.551 211.001C31.8747 189.582 24.4011 164.645 33.5833 142.999C43.236 120.206 68.6053 108.11 92.9727 103.574C117.342 99.0483 142.635 100.011 166.531 93.4373C214.699 80.162 238.232 40.98 288.177 39.7166C328.367 38.6978 363.662 41.501 395.862 81.0248C421.237 112.174 426.7 157.62 422.364 191.914Z" fill="#9A5C1F"/>
<path d="M356.087 483.735L355.681 483.653C355.378 483.546 355.078 483.28 355.031 481.33C355.017 480.728 355.03 479.975 355.047 479.079C355.058 478.498 355.07 477.86 355.076 477.169C354.367 473.812 352.818 469.103 349.595 463.367C345.902 456.796 340.165 449.17 333.523 440.34C324.921 428.906 315.172 415.946 307.575 402.065C304.869 397.119 302.413 391.994 300.23 386.773C283.942 370.461 267.287 353.655 257.637 338.305C239.514 309.477 246.164 286.253 250.14 277.177C247.184 274.243 246.764 270.08 248.12 267.009C249.879 263.025 254.77 260.764 259.215 258.957C260.467 258.447 261.743 257.953 263.046 257.448C266.736 256.019 270.551 254.54 274.682 252.401C276 251.719 277.379 250.952 278.712 250.211C283.163 247.737 287.767 245.179 291.872 244.655C292.265 244.605 292.654 244.573 293.037 244.561C293.616 243.226 294.249 241.941 294.932 240.729C294.073 240.699 293.2 240.675 292.321 240.651C291.422 240.626 290.515 240.601 289.607 240.57C281.159 240.276 272.556 239.446 268.305 232.961C265.003 227.928 264.516 219.668 264.086 212.38C263.976 210.504 263.871 208.732 263.723 207.107C263.012 199.307 261.387 195.337 253.64 192.428C245.671 189.437 231.371 187.687 219.881 186.28L219.524 186.236C215.453 185.738 211.683 185.277 208.233 184.784C206.083 185.083 203.093 185.016 200.842 184.816C195.311 184.324 187.656 182.596 182.756 179.221C179.268 176.82 177.323 173.677 175.903 171.382C175.738 171.115 175.58 170.86 175.429 170.62C173.967 170.145 172.607 169.258 172.184 168.528C171.86 167.966 172.046 167.493 172.375 167.272C172.978 166.867 174.15 167.188 175.407 168.815C175.624 169.096 175.843 169.416 176.071 169.769C176.445 169.872 176.825 169.94 177.194 169.956C178.592 170.016 179.916 169.339 181.722 165.787C182.019 165.202 182.326 164.55 182.651 163.859C184.275 160.401 186.297 156.098 189.858 154.208C193.761 152.136 200.302 152.896 205.446 159.458C208.148 162.906 210.272 167.725 212.325 172.385C213.8 175.731 215.193 178.891 216.618 181.047C218.182 183.412 219.909 184.732 221.613 184.866C223.335 185.003 224.699 183.926 225.545 183.002C227.798 180.539 229.738 175.306 228.428 168.003C228.278 167.163 228.091 166.322 227.87 165.484C227.649 165.255 227.427 165.026 227.205 164.796C222.668 160.095 217.977 155.235 213.589 151.829C206.608 146.41 199.436 143.885 191.635 144.122C189.896 144.174 188.502 144.334 187.381 144.464C185.653 144.662 184.701 144.773 184.181 144.253C183.934 144.006 183.835 143.654 183.886 143.207C184.127 141.098 187.278 136.832 193.47 136.529C200.262 136.2 210.12 140.22 216.899 146.1C222.535 150.99 226.839 157.885 228.769 164.975C233.421 169.791 237.799 174.248 241.437 176.626C244.302 178.497 246.569 178.994 248.372 178.147C251.342 176.747 253.284 171.611 254.31 162.444C256.008 147.264 255.302 119.654 246.395 105.805C236.388 90.2463 217.242 93.7209 206.723 97.178C189.448 102.852 176.382 114.594 172.789 118.057C170.868 119.908 169.414 121.514 168.334 122.948C168.914 123.284 169.521 123.867 170.057 124.851C171.978 128.384 172.608 136.91 171.111 139.107C170.756 139.627 170.244 139.853 169.674 139.748C167.868 139.411 165.664 135.495 164.9 132.22C164.269 129.512 164.431 126.958 166.699 123.523C166.67 123.524 166.641 123.526 166.612 123.528C165.414 123.628 164.278 124.743 163.718 126.369C163.245 127.743 163.171 129.55 163.093 131.462C162.989 133.994 162.872 136.864 161.812 139.513C159.847 144.423 154.818 148.306 151.085 149.466C150.221 149.734 149.396 149.874 148.622 149.915C149.554 150.836 150.571 151.695 151.691 152.214C151.727 152.23 151.761 152.245 151.796 152.261C151.756 151.985 151.706 151.735 151.662 151.518C151.587 151.144 151.538 150.897 151.566 150.683C151.603 150.395 151.774 150.253 151.873 150.194C152.186 150.006 152.525 150.136 152.993 150.316C153.595 150.548 154.517 150.878 155.804 150.889C157.21 150.879 159.091 150.45 160.602 150.106C161.726 149.849 162.621 149.655 163.116 149.654C163.776 149.663 163.915 150.047 163.944 150.211C164.136 151.296 160.934 152.569 160.29 152.813C158.624 153.447 155.672 154.282 152.862 153.656C152.814 154.465 152.606 155.368 152.072 156.29C150.586 158.854 146.536 161.455 140.96 163.425C138.952 164.134 136.696 164.78 134.515 165.404C130.646 166.512 126.645 167.658 124.134 169.141C120.888 171.058 119.634 173.795 120.405 177.276C120.823 179.163 121.768 180.954 122.602 182.534C123.061 183.404 123.495 184.226 123.761 184.932C123.595 183.707 123.326 182.438 123.061 181.19C122.688 179.434 122.337 177.776 122.256 176.25C122.119 173.646 122.791 171.488 124.054 170.477C124.769 169.905 125.622 169.735 126.519 169.987C127.897 170.373 129.414 171.786 131.019 173.284C132.229 174.412 133.481 175.579 134.713 176.347C136.149 177.242 137.568 177.609 139.069 177.998C140.469 178.36 141.917 178.735 143.357 179.57C146.276 181.26 149.333 184.987 149.15 189.175C148.962 193.464 145.465 197.791 142.27 199.685C140.186 200.919 137.97 201.341 136.193 200.846C135.066 200.531 134.204 199.868 133.703 198.929C132.924 197.474 133.038 195.426 133.16 193.257C133.231 191.967 133.306 190.632 133.165 189.497C132.817 186.683 131.187 184.978 130.552 185.041C130.328 185.056 130.061 185.668 129.846 186.159C129.556 186.823 129.227 187.576 128.64 188.141C127.591 189.153 125.867 189.407 124.723 189.182C123.885 193.077 120.427 195.607 117.401 196.69C115.959 197.206 114.514 197.441 113.24 197.648C111.613 197.912 110.208 198.14 109.117 198.84C107.212 200.061 106.142 202.843 106.18 206.471C106.213 209.515 107.024 212.969 107.785 214.943C108.565 212.665 108.486 208.86 108.427 206.035C108.404 204.883 108.383 203.887 108.419 203.142C108.472 202.032 108.66 201.41 109.046 201.061C109.44 200.703 109.935 200.727 110.372 200.751C110.657 200.766 110.953 200.782 111.266 200.712C111.838 200.585 112.565 200.159 113.267 199.746C114.192 199.204 115.064 198.692 115.824 198.682H115.848C117.07 198.682 117.632 199.863 118.648 201.997C118.915 202.558 119.22 203.197 119.58 203.913C120.21 205.161 120.998 206.623 121.911 208.315C123.408 211.09 125.104 214.235 126.739 217.625C129.253 222.837 131.717 228.838 132.73 232.217C133.336 234.239 133.352 235.096 132.793 235.492C132.758 235.517 132.722 235.539 132.686 235.557C132.852 235.786 132.929 236.009 132.915 236.248C132.895 236.61 132.663 236.908 132.224 237.134C130.586 237.981 124.864 238.444 118.474 237.718C115.289 237.355 108.1 236.224 103.608 233.118C103.621 233.743 103.63 234.36 103.624 234.96C103.58 239.867 102.601 243.395 100.132 247.542C99.5022 248.6 98.7815 249.684 98.0188 250.832C95.7419 254.259 93.1619 258.142 93.0076 261.648C92.8059 266.255 96.701 270.514 98.2156 271.355C98.4685 271.495 98.5735 271.489 98.5711 271.489C98.761 271.261 98.6707 269.709 98.5911 268.339C98.5511 267.649 98.5061 266.88 98.4778 266.043C98.3445 262.129 98.4221 255.539 100.441 255.376C101.421 255.273 102.319 256.565 104.13 259.091C105.76 261.366 107.993 264.482 111.241 267.945C119.957 277.239 131.521 283.967 146.593 288.512C147.888 288.902 149.225 289.281 150.599 289.646C150.086 288.378 149.617 287.073 149.2 285.721C145.342 273.21 147.026 260.516 154.207 247.99C162.872 232.876 179.825 217.345 195.434 210.224C211.058 203.098 227.656 203.327 238.751 210.827C249.855 218.332 254.041 232.048 249.946 247.519C245.824 263.1 232.548 282.38 212.182 290.33C194.021 297.419 170.392 295.604 152.316 291.118C154.499 295.97 157.318 300.347 160.255 304.907C161.799 307.305 163.396 309.784 164.93 312.385C170.454 321.754 175.347 333.038 180.077 343.951L179.16 344.35C174.441 333.464 169.561 322.208 164.068 312.893C162.545 310.309 160.953 307.838 159.414 305.448C156.31 300.628 153.337 296.012 151.084 290.806C149.439 290.38 147.842 289.933 146.303 289.469C131.059 284.872 119.351 278.055 110.511 268.629C107.218 265.118 104.963 261.972 103.317 259.674C102.197 258.11 100.91 256.378 100.522 256.372C99.9641 256.482 99.2717 259.976 99.4768 266.01C99.5051 266.837 99.5496 267.599 99.5891 268.281C99.7248 270.609 99.7995 271.892 99.073 272.349C98.5437 272.68 97.9314 272.34 97.7302 272.23C96.011 271.274 91.7849 266.712 92.0085 261.606C92.175 257.82 94.8371 253.814 97.1857 250.278C97.9416 249.141 98.6554 248.067 99.2726 247.031C101.642 243.051 102.582 239.664 102.624 234.951C102.632 234.105 102.612 233.224 102.587 232.336C102.305 232.096 102.039 231.844 101.791 231.583C98.5715 228.188 98.7932 223.082 101.02 220.443C101.913 219.386 103.065 218.836 104.178 218.305C105.344 217.748 106.456 217.217 107.204 216.127C106.235 214.126 105.217 209.933 105.18 206.481C105.138 202.501 106.376 199.409 108.577 197.998C109.843 197.187 111.415 196.931 113.079 196.661C114.372 196.451 115.708 196.234 117.064 195.748C119.883 194.74 123.107 192.384 123.783 188.782C123.326 188.399 123.28 187.845 123.231 187.262C123.189 186.748 123.136 186.109 122.828 185.293C122.584 184.643 122.182 183.882 121.717 183.001C120.854 181.365 119.876 179.511 119.429 177.493C118.566 173.597 120.016 170.411 123.625 168.28C126.246 166.732 130.309 165.568 134.239 164.443C136.406 163.822 138.647 163.181 140.627 162.481C145.982 160.59 149.838 158.15 151.207 155.788C151.698 154.942 151.859 154.11 151.873 153.368C151.671 153.295 151.47 153.213 151.271 153.121C149.712 152.399 148.344 151.092 147.189 149.881C145.061 149.66 143.476 148.718 142.785 147.892C142.143 147.126 142.265 146.487 142.592 146.144C143.039 145.676 144.042 145.619 145.27 146.553C145.877 147.015 146.513 147.697 147.249 148.486C147.381 148.627 147.514 148.77 147.65 148.913C148.584 148.967 149.641 148.866 150.787 148.51C154.301 147.419 159.033 143.764 160.883 139.141C161.88 136.651 161.993 133.873 162.094 131.421C162.175 129.433 162.252 127.556 162.772 126.044C163.461 124.043 164.936 122.664 166.529 122.532C166.756 122.513 167.041 122.516 167.36 122.578C168.496 121.037 170.04 119.317 172.095 117.337C175.726 113.836 188.934 101.969 206.41 96.2278C224.781 90.1922 239.661 93.4871 247.236 105.264C256.283 119.332 257.017 147.233 255.304 162.555C254.222 172.228 252.154 177.47 248.798 179.051C246.658 180.06 244.07 179.542 240.889 177.463C237.476 175.232 233.482 171.271 229.23 166.89C229.296 167.202 229.356 167.514 229.412 167.826C230.562 174.237 229.363 180.31 226.282 183.676C225.346 184.701 224.318 185.379 223.247 185.686C234.131 187.034 246.653 188.737 253.991 191.492C262.19 194.57 263.983 198.951 264.718 207.016C264.868 208.657 264.972 210.437 265.084 212.321C265.507 219.484 265.985 227.603 269.14 232.412C273.13 238.497 281.456 239.285 289.641 239.57C290.547 239.602 291.451 239.627 292.348 239.651C293.413 239.68 294.468 239.709 295.504 239.749C296.47 238.155 297.527 236.713 298.665 235.487C302.475 231.378 307.007 229.889 311.805 228.313C315.336 227.153 318.986 225.954 322.514 223.616C330.994 217.997 338.504 206.167 340.777 194.849C341.92 189.159 341.776 183.455 341.636 177.938C341.488 172.043 341.347 166.475 342.709 161.178C344.193 155.403 347.401 150.178 349.23 147.249C343.652 152.267 326.978 168.474 316.924 180.602C306.14 193.611 303.054 201.935 301.74 210.432C300.671 217.342 300.757 224.72 300.975 228.764C301.486 226.931 302.376 224.413 304.003 221.744C305.882 218.657 308.669 215.498 311.893 211.841C314.885 208.447 318.277 204.6 321.284 200.331C325.292 194.641 328.712 188.11 330.173 185.321C331.055 183.639 331.091 183.574 331.545 183.788C332.002 184.001 331.881 184.293 331.481 185.259C331.12 186.134 322.521 206.814 313.163 219.406C309.547 224.268 305.621 228.21 301.412 231.206C301.259 231.901 301.198 232.218 300.721 232.196C300.519 232.184 300.395 232.096 300.316 231.961C296.466 234.523 292.386 236.313 288.101 237.313C282.277 238.674 277.294 238.154 276.297 236.814C276.047 236.478 276.02 236.084 276.222 235.732C276.422 235.383 276.832 235.11 277.398 234.732C279.347 233.431 283.405 230.723 283.906 220.901C284.108 216.921 283.721 211.656 283.312 206.082C282.429 194.045 281.329 179.065 285.433 167.764C290.392 154.108 303.078 145.507 313.27 138.597C315.526 137.068 317.656 135.623 319.604 134.199C331.051 125.829 335.285 118.642 335.779 106.734C336.139 98.0863 334.48 87.0131 333.269 78.9276C333.266 78.912 333.264 78.8964 333.261 78.8807C332.92 80.1244 332.461 81.4237 331.857 82.742C329.588 87.6946 325.275 93.0628 320.708 98.7464C316.54 103.933 312.231 109.297 309.115 114.781C306.625 119.163 304.911 123.587 303.758 127.542C303.76 127.592 303.761 127.64 303.762 127.688C303.912 134.312 302.97 142.092 301.532 142.193C300.848 142.244 300.746 141.351 300.711 141.058C300.501 139.293 300.874 134.001 302.755 127.447C302.623 122.593 301.62 107.148 294.438 94.5013C288.984 84.8983 280.702 78.3851 278.11 76.8773C278.208 77.0814 278.323 77.3094 278.435 77.5345C279.523 79.7113 281.547 83.7625 281.916 89.2581C282.171 93.0472 281.628 97.4769 280.975 102.184C286.039 110.526 289.69 120.977 291.232 128.604C292.844 136.58 292.569 142.818 290.531 144.494C290.095 144.853 289.36 145.191 288.318 144.758C284.948 143.357 279.296 133.581 278.457 122.038C278.022 116.032 278.906 109.728 279.763 103.631C279.821 103.219 279.878 102.808 279.936 102.399C279.046 100.954 278.113 99.5761 277.141 98.2929C271.261 90.5326 264.102 86.4716 254.61 85.5136C248.378 84.8832 241.492 85.6122 234.832 86.3163C231.821 86.6347 228.976 86.9354 226.309 87.0956C217.075 87.6522 211.03 86.4501 206.103 83.0795C201.591 79.9931 197.998 74.9286 196.645 73.0219C196.448 72.7436 196.296 72.5287 196.192 72.3925C196.124 72.3036 196.083 72.2553 196.067 72.2387L196.077 72.2294C196.02 72.1732 195.99 72.1391 195.988 72.1356L195.756 71.7294L196.146 71.4706C196.411 71.2958 196.627 71.4022 196.787 71.5536L196.791 71.5497C196.812 71.5722 199.015 73.7597 204.044 71.3124C204.69 70.9979 205.386 70.6049 206.119 70.1522C205.676 69.0379 205.271 67.8915 204.87 66.7552C204.51 65.7362 204.149 64.7142 203.763 63.7152C202.461 60.3539 200.846 57.2201 199.778 55.1464C199.118 53.8666 198.682 53.0209 198.545 52.579C198.431 52.2118 198.488 51.9384 198.714 51.7665C199.083 51.4867 199.457 51.7279 200.078 52.1293C200.805 52.5985 201.904 53.3085 202.963 53.3144H202.976C204.247 53.3144 205.649 52.2695 207.768 50.6904C208.225 50.3506 208.706 49.9922 209.222 49.6167C208.491 48.9204 207.787 48.2383 207.115 47.5869C206.422 46.9155 205.759 46.2724 205.129 45.6753C202.797 43.4614 200.949 41.8857 199.727 40.8428C198.823 40.0723 198.416 39.7222 198.236 39.5005C198.026 39.2422 198.05 39.0186 198.108 38.8765C198.237 38.5557 198.544 38.5191 198.84 38.4839C199.469 38.4087 201.14 38.2085 203.927 36.1675C204.862 35.4829 205.902 34.6084 207.108 33.5962C210.848 30.4541 215.851 26.2505 221.882 24.4566C221.18 21.4649 220.848 18.5577 220.947 15.9732C221.181 9.8292 223.814 4.5054 227.208 3.314C228.953 2.7007 230.775 3.2378 232.704 3.8057C234.451 4.3203 236.257 4.8545 238.19 4.6055C240.113 4.3594 242.237 3.3199 244.291 2.3145C246.688 1.1412 248.953 0.0327997 251.053 0.000499725C251.086 -2.74682e-07 251.118 0 251.149 0C254.667 0 257.646 3.0146 259.791 8.7373C260.434 8.2685 261.11 7.8594 261.818 7.5225C265.648 5.6958 270.159 6.1231 273.784 6.4654C274.981 6.5787 276.112 6.6856 277.063 6.6939C278.208 6.7022 279.116 6.5757 279.861 6.4727C281.64 6.2261 282.921 6.0498 283.545 8.4869C284.326 11.5396 284.334 18.817 282.317 24.5401C281.992 25.462 281.615 26.3428 281.204 27.1734C282.885 26.4258 284.782 25.7305 286.633 25.0518C290.286 23.712 294.063 22.3267 295.653 20.6939C295.939 20.3995 296.151 20.0997 296.307 19.8096C296.145 19.1802 296.021 18.6324 295.945 18.1861C295.73 16.9219 295.856 16.2696 296.352 16.0728C296.476 16.022 296.908 15.9082 297.284 16.4707C297.654 17.0254 298.003 18.438 297.369 19.917C297.723 21.2466 298.229 22.918 298.783 24.7485C300.251 29.6015 302.078 35.6416 302.438 39.7876C302.966 45.8569 300.317 48.0068 296.651 50.9824C296.186 51.3598 295.701 51.7534 295.2 52.1733C294.591 52.6831 293.958 53.2309 293.306 53.7949C290.483 56.2383 287.413 58.8955 284.381 60.2334C284.339 61.0684 284.251 61.8604 284.117 62.6089C282.983 68.9522 278.306 73.6255 271.606 75.1099C268.093 75.8882 263.993 75.795 260.03 75.7032C256.416 75.6202 253.007 75.5426 250.028 76.0675C247.615 76.4933 245.468 77.3341 243.574 78.0758C240.391 79.3234 237.643 80.4 234.834 79.1412C230.316 77.1158 226.009 69.0728 225.422 67.232C225.34 66.9742 225.169 66.4381 225.545 66.1246C225.945 65.7921 226.428 66.0518 227.308 66.5191C228.575 67.1949 230.696 68.3253 233.487 68.4337C238.384 68.6095 245.779 65.6163 251.879 60.9498C253.637 59.6041 255.241 58.1578 256.792 56.7599C260.457 53.4552 263.627 50.6022 266.792 51.1661C268.938 51.5465 270.927 53.4425 273.032 55.4498C275.199 57.5167 277.44 59.6539 279.836 60.0406C280.964 60.2218 282.17 60.0123 283.405 59.5391C283.488 55.5357 282.523 50.5386 280.524 44.6309C279.763 42.3858 279.281 41.2608 278.591 40.941C278.072 40.6983 277.286 40.835 275.793 41.4224C274.837 41.7989 273.643 42.3374 272.261 42.9615C268.763 44.5411 263.973 46.7047 258.694 48.1573C257.518 48.481 256.322 48.7691 255.127 49.0308C252.653 52.4063 248.224 54.7378 244.593 55.2032C241.732 55.5675 239.152 54.7628 238.721 53.3653C238.608 52.9966 238.506 52.0552 240.014 51.2882C241.526 50.5196 244.464 50.0001 248.183 49.3419C250.188 48.9869 252.359 48.6026 254.543 48.1344C254.956 47.5216 255.299 46.8751 255.552 46.1993C257.305 41.5269 254.725 35.7183 248.978 31.4019C243.12 27.001 232.749 23.1192 223.822 24.9952C223.575 25.047 223.329 25.1036 223.086 25.1646C223.854 28.1202 224.985 31.1397 226.42 33.9849C227.622 36.3672 228.922 38.3619 230.287 39.9312C236.215 39.1368 240.971 40.9976 241.691 42.69C241.905 43.1924 241.8 43.7193 241.404 44.1353C240.438 45.1465 237.574 45.5508 234.849 44.5386C233.141 43.9048 231.478 42.709 229.905 40.9981C224.139 41.9205 217.039 45.5718 212.303 48.6929C211.766 49.0469 211.264 49.3907 210.79 49.7237C213.631 52.3883 216.825 55.1539 220.093 57.0972C220.82 57.5293 221.557 57.9239 222.292 58.2769C223.928 57.1675 225.457 56.252 226.785 55.6797C231.387 53.6948 233.217 55.8027 233.668 56.4961C234.485 57.7515 234.318 59.4224 233.281 60.3828C231.489 62.0386 227.083 61.5849 222.38 59.4277C220.215 60.9253 217.862 62.7456 215.552 64.5317C212.753 66.6963 209.887 68.913 207.358 70.5507C208.516 73.3105 209.926 75.6835 212.2 77.0922C216.374 79.6791 223.722 79.0356 230.83 78.4145L230.917 79.4106C223.646 80.0463 216.128 80.7036 211.673 77.9428C209.234 76.4316 207.709 73.9062 206.505 71.0888C205.795 71.5229 205.117 71.9023 204.482 72.2118C201.547 73.64 199.437 73.64 198.054 73.2719C199.673 75.5112 202.846 79.6396 206.668 82.2543C211.397 85.4892 217.255 86.6391 226.249 86.0976C228.894 85.9384 231.728 85.6391 234.728 85.3222C241.438 84.6127 248.379 83.8798 254.71 84.5185C264.498 85.5068 271.88 89.6918 277.938 97.6894C278.699 98.6933 279.436 99.7548 280.147 100.86C280.717 96.6494 281.146 92.7021 280.919 89.3256C280.563 84.0297 278.598 80.0956 277.541 77.9818C276.875 76.6488 276.626 76.1503 277.004 75.7518C277.339 75.4032 277.838 75.6229 278.025 75.7059C279.894 76.5267 289.319 83.4632 295.308 94.0072C301.55 104.999 303.197 118.042 303.626 124.66C304.748 121.338 306.253 117.796 308.246 114.287C311.401 108.733 315.736 103.338 319.93 98.1199C324.456 92.4861 328.731 87.1648 330.949 82.3255C331.976 80.0818 332.553 77.9578 332.85 76.1024C332.509 73.7709 332.262 71.9115 332.198 70.701C332.114 69.1141 332.332 68.6854 332.685 68.5291C332.919 68.4261 333.182 68.4847 333.375 68.6805C333.927 69.2396 334.46 72.1829 333.858 76.0926C333.981 76.9305 334.115 77.8284 334.258 78.7791C335.476 86.9046 337.143 98.0325 336.779 106.775C336.269 119.039 331.93 126.427 320.194 135.007C318.232 136.441 316.095 137.89 313.832 139.424C303.759 146.254 291.222 154.753 286.373 168.105C282.343 179.205 283.433 194.067 284.31 206.009C284.722 211.615 285.11 216.91 284.904 220.952C284.379 231.276 280.039 234.172 277.953 235.564C277.57 235.82 277.174 236.084 277.09 236.23C277.332 236.822 281.427 237.845 287.875 236.339C292.174 235.336 296.264 233.513 300.121 230.886C299.842 227.803 299.45 218.696 300.752 210.279C302.092 201.619 305.225 193.149 316.155 179.964C326.615 167.346 344.217 150.328 349.142 145.989C350.273 144.991 350.743 144.579 351.185 144.953C351.615 145.319 351.431 145.615 350.228 147.539C348.459 150.37 345.165 155.64 343.678 161.427C342.351 166.589 342.489 172.09 342.637 177.913C342.777 183.485 342.923 189.246 341.758 195.047C339.436 206.604 331.751 218.695 323.067 224.45C319.426 226.862 315.711 228.083 312.117 229.263C307.446 230.798 303.033 232.248 299.397 236.167C298.416 237.226 297.495 238.452 296.643 239.799C302.444 240.08 307.435 240.85 309.367 244.17C312.007 248.706 308.768 257.823 301.993 264.923C299.267 267.782 295.812 270.413 291.864 272.69C294.109 276.388 298.223 278.529 304.55 279.389C305.428 278.02 306.303 276.704 307.164 275.441C318.322 259.055 330.452 246.904 343.219 239.325C355.008 232.327 368.299 228.624 378.979 225.649C381.04 225.075 383.009 224.526 384.856 223.985C387.888 223.097 390.56 222.239 392.795 221.476C396.82 219.619 399.497 218.73 399.754 218.647C400.562 218.382 400.827 218.311 401.078 218.54L401.293 218.738L401.23 219.03C401.112 219.534 397.395 220.958 393.24 222.37C387.633 224.955 379.35 229.454 371.385 236.329C365.606 241.316 360.05 247.543 354.676 253.565C348.602 260.371 342.864 266.799 337.003 271.349C327.587 278.659 317.023 281.743 305.621 280.526C305.43 280.505 305.239 280.484 305.052 280.461C297.571 292.23 289.979 307.884 289.287 328.506C288.695 346.169 293.003 366.843 301.075 386.204C301.411 386.54 301.746 386.877 302.082 387.213C316.234 401.383 329.602 414.768 338.617 427.119C355.203 449.843 356.148 467.972 356.077 477.058C356.844 480.677 356.709 482.993 356.309 483.47L356.087 483.735ZM302.128 388.674C304.046 393.072 306.159 397.394 308.452 401.584C316.015 415.404 325.74 428.332 334.321 439.74C340.985 448.598 346.741 456.248 350.466 462.877C352.614 466.7 354.068 470.172 355.022 473.135C354.645 463.372 352.086 447.27 337.809 427.709C329 415.639 315.972 402.536 302.128 388.674ZM250.925 277.878C247.01 286.992 240.803 309.649 258.483 337.772C267.742 352.5 283.547 368.635 299.248 384.374C291.706 365.527 287.714 345.6 288.287 328.473C288.981 307.841 296.489 292.149 303.961 280.314C297.605 279.364 293.357 277.042 291.006 273.175C286.56 275.637 281.528 277.654 276.229 279.052C266.542 281.607 257.803 281.631 252.85 279.113C252.133 278.749 251.492 278.333 250.925 277.878ZM151.812 289.96C169.818 294.545 193.622 296.501 211.819 289.399C231.858 281.576 244.922 262.6 248.98 247.263C252.96 232.223 248.927 218.911 238.191 211.655C227.382 204.35 211.158 204.15 195.85 211.134C180.413 218.177 163.645 233.537 155.074 248.489C148.038 260.763 146.382 273.191 150.156 285.426C150.64 286.995 151.196 288.501 151.812 289.96ZM251.347 276.926C251.911 277.408 252.562 277.846 253.303 278.223C258.041 280.63 266.517 280.579 275.973 278.085C281.196 276.707 286.149 274.723 290.521 272.302C289.852 270.982 289.379 269.499 289.095 267.85C288.307 268.376 287.512 268.85 286.718 269.258C280.965 272.221 274.296 272.491 266.893 270.066C266.308 269.873 265.736 269.669 265.175 269.47C260.233 267.712 256.662 266.44 252.081 275.408C251.86 275.841 251.611 276.349 251.347 276.926ZM305.652 279.524C305.678 279.526 305.702 279.529 305.727 279.531C316.868 280.72 327.185 277.705 336.39 270.56C342.18 266.065 347.887 259.669 353.93 252.899C359.325 246.853 364.904 240.602 370.731 235.573C376.343 230.729 382.113 227.05 387.018 224.38C386.349 224.585 385.716 224.775 385.137 224.945C383.286 225.487 381.314 226.036 379.247 226.612C368.624 229.571 355.404 233.254 343.729 240.185C331.09 247.689 319.065 259.739 307.99 276.003C307.22 277.135 306.438 278.308 305.652 279.524ZM292.606 245.585C292.405 245.6 292.203 245.621 291.999 245.647C288.084 246.147 283.567 248.657 279.198 251.085C277.859 251.83 276.473 252.6 275.141 253.29C270.963 255.453 267.122 256.942 263.407 258.381C262.11 258.884 260.839 259.376 259.592 259.883C255.327 261.616 250.643 263.771 249.034 267.413C247.872 270.048 248.188 273.59 250.585 276.193C250.801 275.73 251.005 275.316 251.191 274.952C256.171 265.204 260.499 266.743 265.51 268.529C266.063 268.725 266.627 268.925 267.205 269.116C274.343 271.455 280.753 271.204 286.261 268.369C287.156 267.909 288.052 267.364 288.936 266.752C288.273 261.112 289.681 252.768 292.606 245.585ZM290.005 267.214C290.258 268.94 290.713 270.469 291.383 271.815C295.239 269.589 298.611 267.021 301.271 264.234C307.646 257.55 310.891 248.776 308.503 244.673C306.756 241.672 301.796 241.02 296.051 240.772C295.352 241.968 294.703 243.244 294.11 244.573C296.357 244.704 298.315 245.5 299.577 246.843C300.951 248.304 301.446 250.282 301.01 252.561C300.13 257.154 295.359 263.325 290.005 267.214ZM293.684 245.555C290.809 252.421 289.363 260.473 289.871 266.076C294.853 262.328 299.212 256.628 300.027 252.373C300.401 250.421 299.993 248.746 298.849 247.528C297.693 246.299 295.831 245.603 293.684 245.555ZM103.573 231.844C106.589 234.189 112.044 235.979 118.588 236.724C125.054 237.46 130.484 236.908 131.766 236.246C131.901 236.176 131.935 236.131 131.936 236.131C131.837 235.93 130.713 235.181 129.722 234.521C128.906 233.977 127.891 233.3 126.802 232.487C125.617 231.601 124.343 230.556 122.994 229.45C120.191 227.152 117.014 224.547 114.056 222.958C109.716 220.629 105.987 220.546 104.553 222.747C103.357 224.588 103.464 228.167 103.567 231.627C103.569 231.699 103.571 231.772 103.573 231.844ZM112.464 212.954C113.029 212.954 113.601 213.238 114.204 213.816C115.183 214.756 116.379 216.628 117.763 218.795C118.944 220.644 120.282 222.739 121.746 224.669C124.726 228.596 128.441 232.092 130.8 233.814C131.656 234.439 132.038 234.598 132.193 234.637C132.217 234.452 132.198 233.925 131.772 232.504C130.789 229.222 128.293 223.148 125.839 218.059C124.213 214.691 122.523 211.555 121.031 208.79C120.114 207.091 119.323 205.623 118.688 204.363C118.323 203.639 118.016 202.994 117.746 202.426C116.841 200.526 116.415 199.682 115.845 199.682C115.842 199.682 115.84 199.682 115.838 199.682C115.342 199.689 114.545 200.156 113.774 200.609C113.004 201.06 112.209 201.527 111.482 201.688C111.037 201.786 110.639 201.766 110.32 201.75C109.999 201.733 109.798 201.729 109.717 201.802C109.626 201.884 109.467 202.173 109.418 203.19C109.383 203.9 109.404 204.88 109.427 206.014C109.495 209.283 109.579 213.352 108.544 215.756C108.485 215.894 108.422 216.026 108.356 216.152C108.707 216.713 108.795 216.607 108.796 216.608C109.067 216.608 109.653 215.644 109.936 215.18C110.546 214.178 111.199 213.104 112.243 212.968C112.317 212.959 112.39 212.954 112.464 212.954ZM107.768 217.047C106.898 218.115 105.739 218.668 104.61 219.207C103.545 219.716 102.538 220.196 101.785 221.089C100.093 223.093 99.4069 227.615 102.517 230.895C102.527 230.905 102.536 230.915 102.546 230.925C102.451 227.546 102.441 224.163 103.715 222.202C105.479 219.49 109.622 219.442 114.529 222.077C117.572 223.711 120.79 226.349 123.628 228.676C123.849 228.858 124.067 229.037 124.284 229.215C123.141 227.99 122 226.658 120.949 225.273C119.461 223.312 118.111 221.198 116.92 219.333C115.57 217.22 114.405 215.395 113.511 214.538C113.069 214.114 112.688 213.919 112.373 213.96C111.804 214.034 111.283 214.89 110.823 215.646C110.193 216.681 109.629 217.609 108.796 217.609C108.792 217.609 108.788 217.609 108.784 217.609C108.345 217.604 108.005 217.327 107.768 217.047ZM326.306 194.374C325.035 196.508 323.611 198.765 322.103 200.907C319.064 205.221 315.654 209.089 312.645 212.502C309.45 216.124 306.692 219.253 304.857 222.264C303.081 225.177 302.215 227.912 301.758 229.713C305.534 226.867 309.076 223.227 312.361 218.809C317.737 211.574 322.869 201.631 326.306 194.374ZM130.567 184.041C131.942 184.041 133.78 186.317 134.158 189.373C134.31 190.598 134.233 191.978 134.158 193.313C134.05 195.248 133.939 197.249 134.585 198.457C134.955 199.15 135.604 199.643 136.463 199.883C137.959 200.301 139.938 199.905 141.76 198.824C144.73 197.064 147.979 193.069 148.151 189.131C148.316 185.359 145.522 181.979 142.857 180.435C141.534 179.669 140.216 179.327 138.819 178.966C137.31 178.575 135.751 178.172 134.184 177.195C132.87 176.377 131.583 175.176 130.337 174.015C128.823 172.603 127.393 171.27 126.25 170.949C125.666 170.786 125.138 170.89 124.679 171.258C123.682 172.055 123.137 173.948 123.256 176.197C123.332 177.645 123.675 179.266 124.039 180.982C124.559 183.432 125.095 185.96 124.876 188.195C125.675 188.366 127.131 188.208 127.947 187.421C128.39 186.993 128.677 186.338 128.93 185.758C129.286 184.944 129.655 184.101 130.483 184.044C130.51 184.042 130.539 184.041 130.567 184.041ZM210.543 184.094C213.307 184.467 216.263 184.83 219.401 185.214C218.134 184.53 216.924 183.322 215.784 181.599C214.312 179.372 212.903 176.174 211.41 172.789C209.382 168.185 207.283 163.425 204.659 160.075C199.871 153.966 193.872 153.208 190.327 155.091C187.06 156.824 185.117 160.96 183.556 164.283C183.226 164.985 182.915 165.648 182.613 166.24C182.187 167.08 181.774 167.794 181.363 168.393C181.788 168.373 182.322 168.516 183.049 168.907C183.939 169.385 185.032 170.2 186.416 171.231C188.744 172.966 191.932 175.341 195.686 177.123C198.874 178.637 202.515 179.759 205.44 180.661C208.007 181.452 209.862 182.024 210.563 182.591C211.105 183.029 211 183.481 210.929 183.654C210.863 183.819 210.731 183.965 210.543 184.094ZM176.798 170.927C178.168 173.14 180.044 176.139 183.323 178.398C188.063 181.662 195.526 183.339 200.931 183.82C201.648 183.884 202.331 183.928 202.977 183.956C198.952 183.248 195.479 182.425 192.592 181.338C185.191 178.552 182.062 174.222 181.06 172.49C180.457 171.447 180.139 170.554 180.116 169.864C179.213 170.678 178.265 171.006 177.147 170.955C177.032 170.95 176.916 170.941 176.798 170.927ZM181.408 169.39C181.3 169.39 181.23 169.413 181.197 169.447C181.045 169.604 181.024 170.43 181.925 171.99C182.873 173.629 185.845 177.729 192.945 180.402C196.91 181.895 202.047 182.887 208.238 183.775C209.084 183.653 209.653 183.495 209.903 183.344C209.313 182.901 207.379 182.305 205.146 181.617C202.19 180.705 198.511 179.572 195.257 178.027C191.414 176.203 188.18 173.793 185.818 172.033C184.521 171.066 183.4 170.231 182.576 169.788C182.019 169.489 181.632 169.39 181.408 169.39ZM173.183 168.174C173.408 168.422 173.783 168.713 174.245 168.986C173.791 168.493 173.422 168.267 173.183 168.174ZM192.623 143.107C200.264 143.107 207.333 145.707 214.202 151.039C218.427 154.319 222.899 158.897 227.249 163.402C225.171 157.156 221.246 151.196 216.244 146.855C209.748 141.221 199.998 137.212 193.519 137.528C187.472 137.824 185.038 141.937 184.879 143.321C184.86 143.494 184.888 143.546 184.888 143.546C185.057 143.724 186.231 143.589 187.267 143.47C188.406 143.339 189.824 143.175 191.606 143.122C191.945 143.112 192.285 143.107 192.623 143.107ZM152.846 152.624C155.467 153.302 158.337 152.487 159.936 151.879C160.954 151.492 161.733 151.092 162.249 150.772C161.828 150.852 161.334 150.965 160.824 151.081C159.266 151.436 157.327 151.878 155.811 151.889C154.338 151.891 153.265 151.493 152.633 151.25C152.631 151.249 152.63 151.248 152.628 151.248C152.633 151.273 152.638 151.297 152.643 151.321C152.712 151.666 152.801 152.111 152.846 152.624ZM143.457 146.808C143.383 146.808 143.335 146.821 143.312 146.838C143.321 146.842 143.341 146.999 143.552 147.25C143.928 147.699 144.796 148.294 146.025 148.641C145.533 148.122 145.07 147.657 144.665 147.349C144.097 146.917 143.673 146.808 143.457 146.808ZM280.754 103.767V103.77C279.905 109.815 279.027 116.066 279.456 121.966C280.294 133.495 285.918 142.677 288.702 143.834C289.18 144.034 289.56 143.998 289.896 143.722C291.333 142.54 291.917 137.035 290.252 128.802C288.793 121.584 285.425 111.809 280.754 103.767ZM302.745 131.512C301.879 135.457 301.613 138.607 301.66 140.266C302.075 138.786 302.605 135.773 302.745 131.512ZM167.743 123.769C165.474 127.082 165.287 129.476 165.874 131.992C166.652 135.328 168.75 138.558 169.857 138.765C169.976 138.787 170.117 138.791 170.285 138.543C171.449 136.835 170.983 128.649 169.178 125.329C168.773 124.583 168.282 124.054 167.743 123.769ZM226.474 67.2092C227.393 69.6413 231.44 76.5232 235.244 78.2287C237.67 79.3161 240.115 78.3576 243.21 77.1442C245.147 76.3854 247.343 75.5251 249.855 75.0827C252.934 74.5397 256.554 74.6232 260.053 74.7028C263.957 74.7922 267.996 74.8849 271.39 74.133C277.683 72.739 282.072 68.3649 283.133 62.4328C283.235 61.8605 283.309 61.2604 283.355 60.634C282.109 61.0539 280.875 61.2214 279.676 61.0276C276.975 60.5916 274.619 58.3455 272.342 56.1731C270.349 54.2727 268.467 52.4778 266.618 52.1502C263.93 51.6771 260.931 54.3743 257.462 57.5023C255.897 58.9139 254.277 60.3734 252.486 61.7435C246.217 66.5409 238.568 69.6483 233.448 69.4325C230.428 69.3153 228.18 68.1176 226.837 67.4017C226.717 67.3376 226.592 67.2707 226.474 67.2092ZM199.917 53.2121C200.121 53.6271 200.379 54.1291 200.667 54.6882C201.746 56.781 203.375 59.9431 204.696 63.3537C205.086 64.3625 205.45 65.3937 205.814 66.4221C206.196 67.5075 206.574 68.5779 206.976 69.6062C209.427 68.0041 212.216 65.8474 214.94 63.7405C217.097 62.0725 219.29 60.3762 221.348 58.929C220.76 58.6302 220.17 58.306 219.582 57.9563C216.176 55.9309 212.877 53.0588 209.961 50.3162C209.391 50.7283 208.864 51.1214 208.366 51.4925C206.088 53.1903 204.578 54.3143 202.977 54.3143C202.97 54.3143 202.964 54.3143 202.958 54.3143C201.809 54.3078 200.699 53.7009 199.917 53.2121ZM223.361 58.7629C227.414 60.5031 231.202 60.9421 232.602 59.6482C233.287 59.0149 233.385 57.8938 232.83 57.0413C232.487 56.5144 231.066 54.9236 227.181 56.5975C226.051 57.0847 224.756 57.841 223.361 58.7629ZM278.021 39.8279C278.379 39.8279 278.707 39.8919 279.014 40.0335C280.131 40.553 280.688 41.9959 281.472 44.3104C283.432 50.1004 284.414 55.056 284.409 59.1019C287.224 57.7376 290.134 55.2181 292.653 53.0389C293.308 52.471 293.946 51.9198 294.558 51.4066C295.064 50.9833 295.553 50.5863 296.022 50.2059C299.702 47.2181 301.924 45.4144 301.443 39.8744C301.091 35.8314 299.281 29.8471 297.825 25.038C297.389 23.5927 296.981 22.2455 296.652 21.0785C296.565 21.1835 296.471 21.288 296.37 21.391C294.621 23.1869 290.909 24.5487 286.977 25.9906C284.68 26.8329 282.312 27.7015 280.409 28.6512C278.341 32.2059 275.795 34.5614 274.648 34.8153C274.075 34.9423 273.747 34.6327 273.636 34.3309C273.223 33.2171 275.21 30.2909 279.384 28.055C279.482 28.0028 279.581 27.951 279.681 27.8992C280.313 26.7913 280.9 25.553 281.374 24.2078C283.3 18.7439 283.307 11.5906 282.576 8.7347C282.174 7.1615 281.756 7.2196 279.999 7.4627C279.222 7.5706 278.254 7.702 277.055 7.6937C276.061 7.6849 274.91 7.576 273.691 7.4608C270.188 7.1302 265.829 6.7171 262.248 8.4247C261.51 8.7772 260.807 9.2143 260.142 9.7191C261.991 15.1595 262.534 21.2943 261.555 25.847C260.78 29.4539 258.996 32.5345 257.014 33.6951C256.223 34.158 255.428 34.2854 254.714 34.0652C252.022 33.2332 250.675 27.8006 251.774 22.2024C252.61 17.9319 255.133 12.617 258.965 9.386C257.781 6.1345 255.225 0.9138 251.07 1.0003C249.192 1.0291 247.026 2.0897 244.731 3.2122C242.604 4.2532 240.405 5.3299 238.317 5.5975C236.178 5.869 234.183 5.284 232.422 4.765C230.575 4.2201 228.979 3.7518 227.539 4.2572C224.567 5.3011 222.163 10.3539 221.947 16.0111C221.852 18.5008 222.17 21.3036 222.847 24.1932C223.101 24.1297 223.358 24.0706 223.617 24.0164C232.848 22.075 243.546 26.0696 249.58 30.6018C255.785 35.2624 258.432 41.3733 256.489 46.5505C256.325 46.9895 256.125 47.4172 255.896 47.8317C256.746 47.6344 257.594 47.4225 258.429 47.193C263.633 45.7609 268.383 43.6159 271.851 42.0494C273.245 41.42 274.448 40.8765 275.428 40.4913C276.45 40.0891 277.296 39.8279 278.021 39.8279ZM253.588 49.3542C251.787 49.7194 250.016 50.0329 248.359 50.3259C244.864 50.9446 241.847 51.4782 240.468 52.1794C240.191 52.32 239.56 52.6887 239.677 53.0705C239.863 53.6765 241.623 54.5739 244.467 54.2106C247.537 53.8171 251.213 52.01 253.588 49.3542ZM199.566 39.386C199.791 39.5833 200.069 39.8201 200.376 40.0818C201.607 41.1316 203.466 42.7175 205.818 44.9495C206.45 45.5496 207.116 46.1946 207.811 46.8684C208.524 47.5588 209.272 48.2834 210.049 49.0227C210.578 48.6487 211.143 48.26 211.754 47.8577C216.413 44.7874 223.334 41.2102 229.139 40.1165C227.861 38.5608 226.649 36.6585 225.528 34.4349C224.064 31.5335 222.91 28.4515 222.124 25.4286C216.307 27.1732 211.412 31.286 207.751 34.3617C206.533 35.3856 205.481 36.2699 204.519 36.974C202.159 38.7019 200.505 39.2082 199.566 39.386ZM231.132 40.8386C232.444 42.1545 233.809 43.0857 235.197 43.6008C237.603 44.4939 240.051 44.1047 240.68 43.4446C240.837 43.28 240.811 43.1751 240.772 43.0813C240.362 42.1199 236.557 40.301 231.132 40.8386ZM278.531 29.716C275.961 31.3771 274.803 33.0788 274.605 33.7678C275.356 33.4104 276.961 31.9636 278.531 29.716ZM259.315 10.3987C255.835 13.4812 253.535 18.4094 252.754 22.3948C251.71 27.7141 253.11 32.5227 255.009 33.1101C255.452 33.2463 255.957 33.155 256.508 32.8323C258.234 31.822 259.868 28.9304 260.576 25.637C261.498 21.3498 261.012 15.5847 259.315 10.3987Z" fill="black"/>
</svg>
