<svg width="26" height="20" viewBox="0 0 26 20" fill="none" xmlns="http://www.w3.org/2000/svg">
<path fill-rule="evenodd" clip-rule="evenodd" d="M13 20C19.987 20 25.75 16.7585 25.75 12.5C25.75 8.2415 19.987 5 13 5C6.013 5 0.25 8.2415 0.25 12.5C0.25 16.7585 6.013 20 13 20ZM13 6.5C19.2685 6.5 24.25 9.302 24.25 12.5C24.25 15.698 19.2685 18.5 13 18.5C6.7315 18.5 1.75 15.698 1.75 12.5C1.75 9.302 6.7315 6.5 13 6.5Z" fill="#9A5C1F"/>
<path d="M12.2499 1.25C12.2499 1.05109 12.3289 0.860322 12.4696 0.71967C12.6102 0.579018 12.801 0.5 12.9999 0.5C13.1988 0.5 13.3896 0.579018 13.5302 0.71967C13.6709 0.860322 13.7499 1.05109 13.7499 1.25V5.75C13.7499 5.94891 13.6709 6.13968 13.5302 6.28033C13.3896 6.42098 13.1988 6.5 12.9999 6.5C12.801 6.5 12.6102 6.42098 12.4696 6.28033C12.3289 6.13968 12.2499 5.94891 12.2499 5.75V1.25ZM18.2649 1.853C18.3096 1.66376 18.426 1.49926 18.5896 1.3942C18.7532 1.28914 18.9513 1.25174 19.1419 1.28987C19.3326 1.328 19.501 1.4387 19.6116 1.5986C19.7222 1.75851 19.7664 1.95513 19.7349 2.147L18.9849 5.897C18.9402 6.08624 18.8238 6.25074 18.6602 6.3558C18.4966 6.46086 18.2985 6.49826 18.1079 6.46013C17.9172 6.422 17.7488 6.3113 17.6382 6.1514C17.5275 5.99149 17.4833 5.79487 17.5149 5.603L18.2649 1.853ZM7.73489 1.853C7.69022 1.66376 7.5738 1.49926 7.41018 1.3942C7.24656 1.28914 7.04853 1.25174 6.85787 1.28987C6.6672 1.328 6.49879 1.4387 6.38817 1.5986C6.27754 1.75851 6.23334 1.95513 6.26489 2.147L7.01489 5.897C7.05957 6.08624 7.17599 6.25074 7.33961 6.3558C7.50323 6.46086 7.70125 6.49826 7.89192 6.46013C8.08259 6.422 8.25099 6.3113 8.36162 6.1514C8.47224 5.99149 8.51644 5.79487 8.48489 5.603L7.73489 1.853ZM1.64339 3.8645C1.54115 3.69383 1.3753 3.57077 1.18233 3.52239C0.989352 3.474 0.78506 3.50426 0.614393 3.6065C0.443726 3.70874 0.320665 3.87459 0.27228 4.06757C0.223896 4.26054 0.254152 4.46483 0.356393 4.6355L2.60639 8.3855C2.70863 8.55617 2.87448 8.67923 3.06746 8.72761C3.26043 8.776 3.46473 8.74574 3.63539 8.6435C3.80606 8.54126 3.92912 8.37541 3.97751 8.18243C4.02589 7.98946 3.99563 7.78517 3.89339 7.6145L1.64339 3.8645ZM24.3564 3.8645C24.407 3.77999 24.4738 3.70629 24.5529 3.64759C24.632 3.58889 24.7219 3.54634 24.8175 3.52239C24.913 3.49843 25.0123 3.49353 25.1098 3.50796C25.2072 3.52239 25.3009 3.55588 25.3854 3.6065C25.4699 3.65712 25.5436 3.7239 25.6023 3.80301C25.661 3.88212 25.7035 3.97201 25.7275 4.06757C25.7515 4.16312 25.7564 4.26245 25.7419 4.3599C25.7275 4.45735 25.694 4.55099 25.6434 4.6355L23.3934 8.3855C23.3428 8.47001 23.276 8.54371 23.1969 8.60241C23.1178 8.66111 23.0279 8.70365 22.9323 8.72761C22.8368 8.75157 22.7374 8.75647 22.64 8.74204C22.5425 8.72761 22.4489 8.69412 22.3644 8.6435C22.2799 8.59288 22.2062 8.5261 22.1475 8.44699C22.0888 8.36788 22.0462 8.27798 22.0223 8.18243C21.9983 8.08688 21.9934 7.98755 22.0079 7.8901C22.0223 7.79265 22.0558 7.69901 22.1064 7.6145L24.3564 3.8645ZM17.4999 11.75C17.4999 12.9435 17.0258 14.0881 16.1819 14.932C15.338 15.7759 14.1934 16.25 12.9999 16.25C11.8064 16.25 10.6618 15.7759 9.81791 14.932C8.974 14.0881 8.49989 12.9435 8.49989 11.75C8.49989 10.5565 8.974 9.41193 9.81791 8.56802C10.6618 7.72411 11.8064 7.25 12.9999 7.25C14.1934 7.25 15.338 7.72411 16.1819 8.56802C17.0258 9.41193 17.4999 10.5565 17.4999 11.75Z" fill="#9A5C1F"/>
</svg>
