<svg width="212" height="133" viewBox="0 0 212 133" fill="none" xmlns="http://www.w3.org/2000/svg">
<path fill-rule="evenodd" clip-rule="evenodd" d="M159.138 0.469412C154.037 1.59613 150.851 2.72284 147.665 5.94318C137.46 15.76 136.612 24.9376 128.753 38.4582C118.762 56.0062 114.086 58.0998 101.127 70.3379C99.4232 71.7842 98.1509 73.2346 96.6646 74.6849C84.5536 86.1159 73.7112 108.167 87.3121 122.335C90.0781 125.072 93.0505 127.325 97.0887 129.578C100.913 131.668 104.527 134.085 110.052 132.475C113.88 131.352 117.49 128.612 120.89 126.682C124.505 124.588 128.115 122.335 132.577 121.368C136.826 120.401 142.992 119.921 147.454 120.888C156.593 122.818 169.556 135.376 185.705 127.005C208.021 115.415 198.03 96.7358 205.682 77.5816C208.445 70.4977 214.607 59.71 210.783 49.7293C208.441 43.2887 204.62 41.3549 202.279 39.1014C201.006 37.8109 203.555 38.2983 199.516 36.0409C197.816 35.074 192.93 29.9239 191.23 27.0272C190.164 25.2572 189.526 23.3234 188.678 20.9101C185.701 11.5728 180.601 7.54535 172.739 2.87867C168.276 0.301602 164.876 -0.661301 159.138 0.465415V0.469412Z" fill="#F3C105"/>
<path fill-rule="evenodd" clip-rule="evenodd" d="M129.786 29.0795C129.661 29.1264 129.552 29.168 129.547 29.168C129.542 29.168 129.458 29.2878 129.365 29.4389C128.927 30.0899 129.078 30.5326 131.932 36.991C133.057 39.5326 134.745 43.5274 135.776 46.0795L136.484 47.8295L136.328 47.8868C136.245 47.918 135.578 48.241 134.849 48.6003C132.896 49.5639 131.807 50.0118 129.432 50.8139C124.667 52.4232 124.495 52.8555 126.021 59.3295C126.823 62.7462 127.099 64.0899 127.688 67.5014C128.385 71.5378 128.719 72.767 129.484 74.116C130.568 76.0222 131.604 76.8972 135.339 79.0639C136.031 79.4649 137.068 80.0795 137.896 80.5899C139.323 81.4597 140.974 82.6107 143.766 84.6993C146.969 87.0899 147.078 87.1732 147.682 87.5847C149.823 89.0326 151.391 89.616 153.141 89.616H153.792L154.047 89.9753C154.734 90.9389 156.005 91.8764 157.427 92.4701L157.74 92.6055H157.318C155.703 92.616 154.297 92.1316 150.573 90.293C149.203 89.6107 147.484 88.7774 146.755 88.4389C144.193 87.241 143.125 86.7253 142.469 86.3816C138.328 84.1993 137.302 83.3347 135.25 80.2982C134.073 78.5535 133.661 78.2514 133.109 78.7149C132.229 79.4545 132.594 85.8347 133.693 88.9024L133.776 89.142L133.448 89.0639C129.547 88.142 124.568 87.9857 120.354 88.6472C117.219 89.142 114.995 89.8139 108.365 92.2618C97.4635 96.2878 89.7552 97.2618 80.7344 95.741C76.6302 95.0482 73.6927 94.1576 64.9115 90.9389C52.4688 86.3868 44.8906 84.7201 35.2604 84.4389C26.8438 84.1889 19.3333 85.1837 5.92708 88.3139C3.76562 88.8191 0.369792 89.5014 0.015625 89.5014C0.010417 89.5014 0 89.7097 0 89.9649V90.4232H0.177083C0.791666 90.4232 3.25 89.9389 6.67188 89.1524C23.2917 85.3087 32.5469 84.543 43.4167 86.1107C50.4479 87.1264 55.4583 88.5274 66.2604 92.491C75.0365 95.7149 78.8385 96.6941 84.724 97.2514C86.2292 97.392 90.6042 97.392 92.1719 97.2514C97.6042 96.7566 102.021 95.6628 109.083 93.0587C114.844 90.9337 116.875 90.2982 119.552 89.793C124.172 88.9232 128.969 89.0222 133.417 90.0847L134.172 90.267L134.396 90.7305C135.542 93.1107 137.969 94.4441 138.979 93.2462C139.896 92.1576 138.104 90.418 135.182 89.5587C134.958 89.491 134.927 89.4597 134.818 89.1628C134.141 87.3607 133.594 83.8816 133.589 81.392C133.583 79.517 133.552 79.5482 134.333 80.7149C136.885 84.517 138.51 85.6993 145.891 89.1316C146.844 89.5743 148.703 90.4753 150.031 91.1316C153.266 92.7357 154.188 93.1107 155.641 93.4232C156.516 93.6055 158.281 93.6107 159.328 93.4232L160.057 93.293L160.708 93.4128C162.984 93.8243 166.516 93.9232 170.76 93.6993C171.432 93.6628 171.995 93.642 172.01 93.6576C172.021 93.668 171.943 93.9493 171.828 94.2826C171.563 95.0639 171.214 96.2774 170.74 98.017C170.286 99.7045 169.922 100.939 169.651 101.751C169.344 102.652 169.417 103.074 169.87 103.074C170.156 103.074 170.281 102.949 170.63 102.283C171.391 100.856 172.193 99.6107 172.495 99.3972L172.661 99.2774L172.745 99.4441C172.797 99.5326 172.885 99.8139 172.953 100.064C173.063 100.481 173.135 100.949 173.563 104.017C173.786 105.626 173.901 105.892 174.365 105.892C174.974 105.892 175.052 105.6 175.656 101.064C175.786 100.1 175.932 99.0378 175.984 98.7045L176.078 98.1003L176.161 98.418C176.208 98.5899 176.406 99.4597 176.609 100.34C177.292 103.309 177.375 103.538 177.839 103.538C178.208 103.538 178.359 103.329 178.359 102.829C178.359 101.543 177.974 98.668 177.417 95.7618C177.271 95.0118 177.151 94.3868 177.151 94.3712C177.151 94.3607 177.448 94.5014 177.807 94.6837C178.547 95.0587 178.885 95.142 179.156 95.0014C179.703 94.7149 179.609 94.2149 178.844 93.4128L178.536 93.0899L179.729 92.991C180.385 92.9389 182.198 92.7878 183.766 92.6628C185.328 92.5378 187.333 92.3712 188.219 92.293C191.729 91.9753 192.776 91.9076 196.135 91.7462C199.615 91.5847 199.51 91.5951 199.641 91.2878C199.974 90.4805 199.464 90.3868 195.099 90.4441C191.495 90.491 190.839 90.5222 182.76 90.9962C179.688 91.1785 177.568 91.2826 177.01 91.2826L176.661 91.2878L176.76 89.918C176.813 89.168 176.859 88.3555 176.859 88.116C176.865 87.741 176.901 87.5899 177.094 87.1055C177.771 85.4232 178.516 81.7305 178.63 79.5482C178.661 78.8972 178.677 78.8035 178.755 78.8347C179.479 79.116 182.839 79.9805 184.667 80.3607C187.266 80.8972 192.688 81.6212 194.104 81.6212C194.953 81.6212 195.307 81.3868 195.292 80.8295C195.255 79.8243 190.839 71.1889 188.318 67.1993C183.281 59.2253 180.12 52.3816 176.495 41.5899C174.891 36.8243 174.948 36.8868 171.745 36.8139C169.766 36.767 169.016 36.7045 166.714 36.3816C163.036 35.8607 159.979 35.2826 154 33.9701C151.37 33.392 149.115 32.9232 145.318 32.1576C140.719 31.2357 139.182 30.8972 133.641 29.5795C131.323 29.0274 130.281 28.892 129.786 29.0795ZM131.302 30.0899C131.922 30.1993 132.615 30.3555 134.62 30.8347C136.047 31.1732 139.151 31.892 140.083 32.1003C140.526 32.1993 142.677 32.642 144.87 33.0795C149.036 33.918 150.75 34.2774 154.896 35.1837C163.125 36.9857 168.411 37.793 171.932 37.793C174.156 37.793 174.161 37.7982 175.198 40.8764C177.172 46.7462 178.026 49.0535 179.5 52.517C181.37 56.9024 183.042 60.2357 185.479 64.4232C185.75 64.8816 186.063 65.4128 186.182 65.6055C186.526 66.1524 188.089 68.7097 188.469 69.3451C188.906 70.0743 189.49 71.116 190.099 72.2462C190.359 72.7357 190.688 73.3451 190.823 73.6003C192.052 75.8868 193.406 78.6472 193.938 79.9389L194.229 80.6472H193.917C193.281 80.6472 189.906 80.2357 187.505 79.866C184.995 79.4753 181.896 78.7566 179.417 77.991L178.661 77.7514L178.625 77.4076C178.505 76.3607 178.036 75.892 176.781 75.5587C176.161 75.392 175.38 75.1316 175.344 75.0691C175.333 75.0535 175.281 74.6732 175.229 74.2305C174.875 71.1732 174.057 68.1941 172.422 63.991C170.536 59.1628 169.495 57.5899 168.708 58.3764C167.432 59.6524 171.016 72.2826 173.38 74.8555C173.557 75.0482 173.568 75.0743 173.458 75.0482C172.286 74.7618 168.318 74.1889 162.656 73.4857C152.24 72.1837 148.927 71.5326 146.672 70.3399C144.318 69.0899 143.891 68.2253 141.667 60.1993C140.104 54.5639 139.958 54.1055 138.344 49.9024C136.609 45.392 134.865 41.1732 132.74 36.3607C130.698 31.741 130.167 30.4389 130.161 30.0743C130.161 29.9337 130.479 29.9389 131.302 30.0899ZM136.807 49.0378C136.854 49.142 137.047 49.8868 137.245 50.6889C138.802 57.1264 139.115 58.2097 141.005 63.6212C143.208 69.9337 144.068 70.8399 149.703 72.7982C155.135 74.6889 161.625 76.668 165.896 77.741C170.219 78.8295 170.333 78.8868 170.328 80.0118C170.318 81.3868 169.328 83.9493 168 86.0378C165.984 89.2045 163.771 91.0587 160.865 92.0066L160.052 92.2722L159.594 92.1472C157.667 91.6264 156.208 90.8712 155.292 89.9232L154.865 89.4805L155.083 89.4337C155.396 89.366 156.13 89.0535 156.526 88.8191C158.964 87.3712 158.74 83.7878 156.219 83.8764C154.323 83.9389 152.813 86.267 153.302 88.3607L153.38 88.6837L153 88.6576C151.458 88.5535 150.047 88.0014 148.339 86.8347C147.719 86.4128 147.339 86.1316 144.568 84.0691C143.208 83.0535 142.042 82.1837 141.974 82.1368C141.906 82.0899 141.547 81.8399 141.177 81.5795C140.411 81.0378 139.068 80.142 138.474 79.7826C137.698 79.3139 136.344 78.5014 135.969 78.2878C130.333 75.017 129.87 74.3139 128.641 67.1837C128.068 63.8607 127.807 62.6003 126.859 58.5587C126.318 56.2357 126.234 55.7201 126.229 54.6785C126.219 52.991 126.281 52.9337 129.484 51.8503C132.042 50.9857 132.927 50.6316 134.615 49.7982C136.745 48.741 136.693 48.7618 136.807 49.0378ZM169.792 60.4024C171.766 64.3347 173.708 70.2722 174.182 73.793L174.26 74.3868L174.125 74.2201C172.536 72.3035 170.052 65.0691 169.531 60.8451C169.365 59.4597 169.339 59.4962 169.792 60.4024ZM156.448 73.6785C157.125 73.7774 159.844 74.1264 162.484 74.4597C168.786 75.2514 171.927 75.7045 172.104 75.8555C172.484 76.1837 174.073 79.491 174.641 81.1316L174.938 81.9962L174.953 85.3451L174.974 88.6941L174.385 89.3712C173.615 90.267 173.307 90.7357 172.802 91.7774L172.385 92.6472L171.646 92.6837C168.063 92.8607 164.094 92.8712 162.714 92.7097L162.115 92.6368L162.891 92.2514C164.875 91.2722 166.411 89.9285 167.979 87.8035C170.505 84.3816 171.917 80.2566 171.063 78.7878C170.609 78.0118 169.865 77.6889 166.771 76.9337C164.167 76.293 162.068 75.7149 159.552 74.9493C157.427 74.3035 154.755 73.4285 155.068 73.4805C155.146 73.4962 155.766 73.5847 156.448 73.6785ZM176.349 76.8503C176.417 76.8868 176.458 76.9285 176.448 76.9389C176.406 76.9805 175.484 76.6055 175.484 76.5535C175.484 76.5066 176.104 76.7201 176.349 76.8503ZM174.589 77.5639C174.604 77.7253 174.63 78.0118 174.651 78.1993L174.677 78.543L174.307 77.7982C173.859 76.892 173.865 76.9337 174.245 77.116C174.547 77.267 174.552 77.2774 174.589 77.5639ZM176.563 78.0743C176.802 78.1472 176.802 78.0743 176.521 80.017C176.396 80.8816 176.26 81.8868 176.224 82.241C176.182 82.5951 176.135 82.8868 176.12 82.8868C176.052 82.8868 175.891 81.6837 175.859 80.9337C175.828 80.241 175.724 78.9962 175.62 78.043L175.583 77.7097L175.979 77.8607C176.198 77.9441 176.458 78.043 176.563 78.0743ZM177.615 80.0587C177.547 80.8087 177.224 82.8347 177.167 82.8868C177.125 82.9285 177.182 82.4337 177.422 80.7097C177.646 79.116 177.729 78.8347 177.615 80.0587ZM156.818 84.9493C157.193 85.1628 157.344 85.8347 157.167 86.4805C156.917 87.418 156.052 88.1472 154.828 88.4597L154.406 88.5691L154.328 88.3607C153.703 86.6524 155.495 84.1889 156.818 84.9493ZM175.609 89.9076H175.776L175.74 90.5535C175.693 91.3295 175.729 91.2878 175.104 91.3399C174.266 91.4076 173.875 91.8399 174.161 92.3816C174.234 92.5118 174.078 92.5691 173.74 92.5378L173.531 92.5222L173.781 92.0066C174.203 91.1264 175.177 89.8035 175.354 89.8764C175.401 89.892 175.516 89.9076 175.609 89.9076ZM136.313 91.0743C137.781 91.741 138.677 92.5951 137.969 92.6524C137.323 92.7097 136.349 92.0274 135.719 91.0847C135.453 90.6837 135.448 90.6837 136.313 91.0743ZM175.719 93.5795L175.979 93.741L176.193 94.741C176.307 95.293 176.453 95.991 176.51 96.2982L176.615 96.8555L176.422 96.7097C176.036 96.4128 175.552 96.642 175.318 97.2305C175.141 97.668 175.068 98.0795 174.729 100.579C174.49 102.366 174.411 102.814 174.38 102.642C174.354 102.517 174.271 101.949 174.193 101.382C173.891 99.1889 173.51 98.3764 172.766 98.3139C172.391 98.2826 172.156 98.3764 171.792 98.7045C171.641 98.8347 171.526 98.9128 171.542 98.866C171.557 98.8243 171.76 98.0795 172 97.2097C172.448 95.5691 173.026 93.7201 173.125 93.6212C173.156 93.5899 173.568 93.5326 174.031 93.4962C175.396 93.392 175.427 93.392 175.719 93.5795Z" fill="black"/>
</svg>
