<svg width="264" height="245" viewBox="0 0 264 245" fill="none" xmlns="http://www.w3.org/2000/svg">
<path d="M227.807 158.681C228.86 143.749 225.952 128.732 214.691 114.777C196.92 92.7418 178.102 89.8726 169.02 83.3467C137.84 60.9313 141.054 33.7933 106.749 16.5348C98.0891 12.1777 88.3399 9.46071 78.6983 10.486C69.0547 11.5166 59.5823 16.685 54.8724 25.1511C46.1805 40.7696 55.7359 60.509 52.1488 78.0204C49.6717 90.0825 41.245 99.8773 34.0748 109.891C26.91 119.908 20.517 131.957 23.0197 144.02C25.6467 156.72 37.4449 165.533 49.5021 170.358C61.5613 175.178 74.6568 177.273 86.2635 183.097C109.657 194.849 117.738 217.392 143.274 223.153C163.822 227.791 182.246 229.963 202.838 212.95C219.066 199.54 226.525 176.747 227.807 158.681Z" fill="#F3C105"/>
<mask id="mask0_84_26" style="mask-type:luminance" maskUnits="userSpaceOnUse" x="35" y="35" width="192" height="200">
<path d="M226.405 35H35.4049V235H226.405V35Z" fill="white"/>
</mask>
<g mask="url(#mask0_84_26)">
<path d="M36.1028 94.422C38.4882 94.9689 41.0767 94.9897 43.5194 95.1772C47.5455 95.4793 51.5559 95.7241 55.5819 95.9116C58.7799 96.0835 61.9569 96.2501 65.1497 96.2501C66.9674 96.2501 68.8007 96.0262 70.483 95.3491C72.0351 94.7241 73.2278 93.5574 74.6653 92.7605C75.8007 92.1407 77.0663 91.8178 78.3528 91.7241C79.6965 91.6303 81.0559 91.7605 82.3997 91.896C80.5819 90.9532 79.8997 88.9689 81.3788 87.1043C83.2851 84.6876 87.0142 83.6512 89.9049 82.9897C91.4361 82.6512 92.9882 82.4272 94.5403 82.3491C93.009 76.6147 91.0976 70.9949 89.0715 65.3907C87.9569 62.297 86.8215 59.1824 85.7642 56.073C84.9882 53.7709 84.3059 51.448 83.4569 49.1668C82.759 47.2814 82.0194 45.3959 81.4517 43.4689C81.3007 42.9584 81.0194 42.3178 81.0924 41.7709C81.1497 41.1512 81.7382 40.4897 82.1132 40.0001C83.9465 37.6616 86.4101 36.6407 89.2642 36.073C91.3059 35.6772 94.8788 34.9428 96.4674 36.7553C97.1861 37.5834 97.5455 38.7553 97.8476 39.7709C98.2642 41.1668 98.6444 42.5626 99.0976 43.9584C100.306 47.7345 101.592 51.4689 102.915 55.1824C105.301 61.8803 107.759 68.5418 109.988 75.2918C110.332 75.1407 110.691 75.0105 111.03 74.8959C114.53 73.7293 118.483 73.8022 121.905 75.1824C124.91 76.3907 128.202 78.9324 126.988 82.5782C125.801 86.1407 121.884 87.2553 118.499 86.6876C116.42 86.3491 112.769 84.3699 112.072 87.5939C112.014 87.8178 111.993 88.047 111.973 88.2918C113.394 89.7814 114.358 91.6876 114.624 93.7449C116.514 94.2553 118.405 94.7814 120.238 95.4793C121.639 96.0053 122.962 96.6876 124.4 97.0835C125.665 97.4428 126.952 97.7241 128.165 98.2501C129.598 98.8751 130.79 99.948 131.962 100.99C133.457 102.307 134.78 103.667 135.749 105.422C136.92 107.531 137.884 109.761 138.962 111.927C140.306 114.646 141.795 117.287 143.275 119.927C144.806 122.682 146.353 125.417 147.754 128.245C149.019 130.792 150.118 133.396 151.233 136.021C151.311 136.188 151.384 136.375 151.462 136.547C151.577 136.604 151.67 136.677 151.764 136.771C151.785 136.266 151.743 135.734 151.936 135.245C152.311 134.224 153.634 133.302 154.467 134.474C154.848 135 154.79 135.698 154.754 136.302C154.697 137.453 154.733 138.568 154.941 139.698C155.754 144 158.4 147.714 161.124 151.109C161.238 151.109 161.353 151.167 161.426 151.297C161.598 151.563 161.769 151.844 161.92 152.109C162.014 152.24 162.129 152.354 162.223 152.49C162.295 152.563 162.316 152.677 162.295 152.771C164.056 155.844 165.457 159.109 166.894 162.354C168.67 166.354 170.447 170.37 172.223 174.37C175.78 182.386 179.316 190.406 182.874 198.422C184.572 202.271 186.259 206.156 188.035 209.985C188.926 211.912 189.848 213.818 190.853 215.703C191.743 217.365 192.874 218.985 193.441 220.797C194.504 224.136 191.78 228.208 194.368 231.094C196.374 233.323 199.947 233.625 202.749 233.755C210.556 234.136 218.275 233.813 226.025 232.906C226.499 232.849 226.499 233.604 226.025 233.662C219.144 234.453 212.295 234.87 205.374 234.625C202.254 234.511 198.91 234.531 196.035 233.188C193.254 231.906 192.155 229.453 192.556 226.474C192.837 224.287 193.332 222.266 192.384 220.156C191.572 218.307 190.436 216.568 189.509 214.761C187.545 210.891 185.801 206.912 184.045 202.948C180.415 194.761 176.785 186.557 173.15 178.37C171.15 173.823 169.124 169.276 167.118 164.729C165.342 160.729 163.697 156.656 161.483 152.865C161.447 152.844 161.426 152.807 161.389 152.792C160.67 162.542 160.009 172.354 160.728 182.141C160.9 184.5 161.217 186.839 161.483 189.198C161.712 191.12 161.785 193.214 160.822 194.953C159.707 196.953 156.17 198.12 154.545 196.005C154.051 195.365 154.072 194.63 153.863 193.896C153.54 192.781 152.389 192.443 151.478 191.896C150.082 191.047 149.061 189.745 148.342 188.313C146.733 185.047 146.603 181.333 145.165 178.011C144.447 176.333 143.405 174.672 141.853 173.651C141.493 173.427 140.702 172.938 140.098 172.901C140.077 176.125 139.889 179.349 139.545 182.557C138.92 188.651 137.733 194.688 136.67 200.724C135.462 207.646 134.254 214.552 133.025 221.474C132.967 221.833 132.363 221.833 132.306 221.474C130.28 208.495 131.264 195.12 135.181 182.594C136.275 179.089 137.598 175.651 139.15 172.313C139.186 172.24 139.264 172.182 139.358 172.146C139.358 170.24 139.301 168.354 139.17 166.448C138.978 163.542 138.566 160.656 138.207 157.771C137.978 155.938 137.848 154.052 137.374 152.281C136.936 150.677 136.295 149.13 135.592 147.62C135.54 147.979 135.368 148.318 134.973 148.354C134.405 148.412 133.874 147.828 133.816 147.318C133.723 146.604 134.103 146.073 134.629 145.714C134.613 145.677 134.613 145.641 134.592 145.604C134.572 145.547 134.556 145.505 134.535 145.453C134.327 145.057 134.139 144.656 133.952 144.261C132.572 143.604 131.795 142.396 131.264 141.016C131.228 141 131.186 140.979 131.15 140.979C129.827 140.453 128.483 140.016 127.087 139.714C124.363 139.115 121.243 138.755 118.499 139.318C117.665 139.49 116.78 139.849 116.249 140.469C116.608 140.734 117.045 140.906 117.592 140.964C118.634 141.057 119.67 140.792 120.691 140.677C123.207 140.375 125.743 140.62 128.165 141.318C128.447 141.396 128.561 141.865 128.259 142C125.42 143.281 122.394 144.016 119.295 144.151C118.217 144.188 116.702 144.375 115.795 143.641C115.077 143.073 114.905 142.057 115.098 141.208C115.134 141 115.207 140.828 115.285 140.662C114.811 140.13 114.53 139.453 114.301 138.771C113.905 137.583 113.582 136.375 113.202 135.188C112.488 132.927 111.691 130.698 110.842 128.49C110.197 126.833 109.499 125.229 108.78 123.604C107.608 123.229 106.436 122.833 105.28 122.453C102.29 121.453 97.983 119.552 99.0611 115.609C99.1132 115.401 99.3215 115.307 99.5142 115.344C101.519 115.74 103.519 116.078 105.545 116.38C104.978 115.021 104.41 113.646 103.863 112.287C101.894 111.516 99.9465 110.703 98.0194 109.833C96.3944 109.099 94.2174 108.38 93.3476 106.667C92.8007 105.589 92.9674 104.026 94.009 103.307C94.1965 103.177 94.4049 103.083 94.6132 103.042C94.2382 102.839 93.858 102.609 93.5194 102.344C92.1392 101.292 91.2694 99.4585 91.8163 97.7241C92.0038 97.1407 92.384 96.4428 92.9882 96.2501C93.4413 96.0991 94.2955 96.2345 94.7642 96.271C95.5038 96.3491 96.2434 96.4585 96.9622 96.6512C97.3736 96.7449 97.7903 96.8543 98.1913 96.9897C98.0924 96.7032 97.9986 96.4012 97.9049 96.0991C97.3215 95.7449 96.7538 95.3647 96.2226 94.9532C95.6549 94.5157 95.0142 93.9116 94.5194 93.2345C94.4622 93.3647 94.3319 93.4793 94.1809 93.4585C92.1965 93.2918 90.2278 93.1043 88.2434 92.9324C87.9986 92.9116 87.7486 92.896 87.483 92.8751C86.8632 92.9532 86.2174 92.9689 85.5924 92.9689C82.759 92.9324 79.8059 92.1564 76.9882 92.8022C75.3997 93.1564 74.2122 94.1043 72.884 95.0053C71.6549 95.8543 70.3319 96.422 68.8788 96.7241C67.5715 97.0053 66.2851 97.1199 64.9622 97.1199C57.983 97.0835 50.9882 96.573 44.0299 96.0626C41.3788 95.8751 38.5455 95.8543 35.9361 95.2501C35.4257 95.047 35.634 94.3074 36.1028 94.422ZM104.186 60.9376C101.973 54.7709 99.7226 48.5991 97.7903 42.3387C97.4882 41.3543 97.2642 40.3387 96.9413 39.3751C96.6028 38.3595 96.1861 37.1147 95.0872 36.7137C93.9517 36.3022 92.6288 36.3959 91.4569 36.5105C89.983 36.6616 88.5247 36.9637 87.108 37.3959C85.0663 38.0157 82.9257 39.6043 81.983 41.5626C81.5455 42.4532 82.4361 44.1095 82.7382 45.0001C83.2851 46.5626 83.8736 48.1303 84.4622 49.6928C85.2174 51.7345 85.8007 53.8282 86.5038 55.8647C88.2799 61.1095 90.2642 66.2762 92.0611 71.5209C92.9882 74.2397 93.858 76.9532 94.634 79.7293C94.8788 80.5939 95.108 81.4637 95.3319 82.3282C96.9205 82.2918 98.5299 82.3855 100.098 82.6147C100.212 82.6303 100.342 82.6512 100.478 82.672C100.592 82.4428 100.759 82.2345 100.988 82.1043C101.061 82.0678 101.118 82.0262 101.197 82.0105C101.118 81.896 101.025 81.7814 100.952 81.672C100.801 81.4428 100.967 81.198 101.176 81.1251C103.181 80.3126 104.697 78.7657 106.379 77.4637C107.306 76.7449 108.285 76.1251 109.327 75.6147C107.681 70.6928 105.926 65.823 104.186 60.9376ZM111.16 88.5157C110.822 88.198 110.462 87.8751 110.066 87.6147C108.91 86.8022 107.608 86.2345 106.207 86.047C105.207 85.9168 104.165 86.0678 103.144 86.0105C102.426 88.5366 99.5715 89.3282 97.2226 88.9324C97.2069 88.9897 97.1861 89.0262 97.1653 89.0835C98.4361 89.4064 99.7226 89.7814 100.988 90.1199C104.259 90.9897 107.551 91.8751 110.822 92.7449C111.462 92.9116 112.108 93.0835 112.749 93.2553C111.842 91.8387 111.144 90.1199 111.16 88.5157ZM113.827 93.4793C113.582 92.0105 112.941 90.6303 112.03 89.4637C112.223 90.9116 112.941 92.3282 113.827 93.4793ZM101.629 84.8387L101.65 84.8595C101.707 84.7449 101.743 84.6512 101.764 84.5366C101.837 84.0835 101.519 83.7657 100.988 83.5574C100.988 84.047 101.269 84.573 101.629 84.8387ZM100.384 87.271C99.759 87.7657 98.9622 88.2137 98.1497 88.2918C99.3424 88.3647 100.551 88.0835 101.462 87.2918C101.879 86.9168 102.197 86.4428 102.368 85.9168C102.254 85.896 102.16 85.8595 102.045 85.8387C102.009 85.8178 101.973 85.8178 101.931 85.8022C101.499 86.3855 100.858 86.896 100.384 87.271ZM102.54 85.2189C102.556 84.9897 102.556 84.7657 102.54 84.5574C102.499 84.7657 102.447 84.9741 102.348 85.1772C102.405 85.1772 102.462 85.198 102.54 85.2189ZM103.275 85.3126C103.842 85.3282 104.447 85.2918 105.014 85.2553C104.561 85.0262 104.129 84.7657 103.712 84.4793C103.54 84.3699 103.368 84.2345 103.217 84.1251C103.295 84.5001 103.316 84.9168 103.275 85.3126ZM102.139 83.3699C101.894 82.9532 101.535 82.5782 101.233 82.8751C101.592 82.9741 101.915 83.1251 102.139 83.3699ZM108.285 85.573C108.931 85.6876 109.572 85.7449 110.217 85.7241C110.613 85.7241 110.952 85.7657 111.181 85.5001C111.426 85.198 111.462 84.5366 111.483 84.1772C111.577 82.672 111.066 81.1616 110.634 79.7293C110.275 78.5939 109.915 77.4637 109.535 76.3334C108.42 76.8803 107.363 77.5782 106.379 78.3699C104.92 79.5574 103.519 80.8022 101.822 81.6147C103.389 83.6876 105.733 85.1043 108.285 85.573ZM98.3215 87.5001C99.0611 87.3491 99.7226 86.8595 100.269 86.3855C100.551 86.1407 100.931 85.8178 101.254 85.4637C100.759 85.1407 100.441 84.672 100.306 84.0262C100.269 83.823 100.249 83.573 100.269 83.3699C99.2122 83.1407 97.8684 83.1407 97.3944 83.1043C96.7694 83.0678 96.1288 83.0678 95.5038 83.0835C95.6184 83.5001 95.7122 83.9168 95.8267 84.3282C96.1444 85.5939 96.4517 87.896 98.3215 87.5001ZM116.176 85.3126C118.217 85.896 120.223 86.422 122.337 85.8751C124.306 85.3699 125.988 83.896 126.42 81.8595C126.915 79.5574 125.233 77.823 123.4 76.7449C120.03 74.7866 115.853 74.3699 112.108 75.3699C111.462 75.5418 110.842 75.7657 110.233 76.0314C110.384 76.4637 110.519 76.8959 110.67 77.3334C111.238 79.0678 111.9 80.823 112.165 82.6303C112.259 83.2918 112.295 83.9324 112.223 84.5939C112.165 85.047 112.03 86.047 111.598 86.3282C111.217 86.573 110.384 86.4793 109.952 86.4793C109.858 86.4793 109.78 86.4793 109.686 86.4793C110.254 86.8022 110.785 87.1772 111.275 87.6147C111.389 87.0835 111.598 86.5939 111.92 86.1407C112.92 84.6876 114.681 84.8751 116.176 85.3126ZM146.353 127.136C143.707 122.042 140.665 117.136 138.15 111.969C137.129 109.854 136.16 107.703 135.03 105.667C134.061 103.948 132.723 102.609 131.243 101.328C129.92 100.177 128.676 99.1564 126.973 98.573C125.759 98.1564 124.493 97.9116 123.264 97.5001C121.811 97.0053 120.447 96.2918 118.993 95.8022C117.572 95.3074 116.134 94.896 114.681 94.5157C114.681 94.5522 114.681 94.5939 114.681 94.6512C114.681 94.9689 114.264 95.1564 114.035 94.9116C113.827 94.6876 113.618 94.4585 113.41 94.198C112.353 93.9116 111.295 93.6512 110.233 93.3647C107.077 92.5157 103.936 91.6876 100.78 90.8387C99.5299 90.5001 98.2851 90.1616 97.0142 89.8387C96.8632 91.6876 97.9257 93.8387 98.4517 95.4428C99.7799 96.2137 101.176 96.8751 102.613 97.4428C104.769 98.271 107.056 98.8178 109.29 99.422C116.853 101.479 124.473 103.724 132.228 105.026C132.644 105.099 132.551 105.781 132.134 105.761C121.618 105.287 111.41 102.932 101.67 98.9689C100.91 98.6668 100.139 98.3439 99.3632 98.0626C99.8163 99.4012 100.29 100.74 100.759 102.063C101.009 102.724 101.254 103.386 101.499 104.063C103.879 104.552 106.264 104.984 108.665 105.438C113.978 106.479 119.275 107.74 124.061 110.307C124.436 110.516 124.17 111.099 123.775 110.984C116.514 109.099 109.233 107.193 101.973 105.307C102.749 107.401 103.561 109.495 104.389 111.573C106.738 112.474 109.118 113.323 111.519 114.099C116.098 115.568 120.733 116.776 125.441 117.719C125.858 117.813 125.759 118.458 125.348 118.458C119.103 118.474 112.884 118.021 106.697 117.156C107.306 118.589 107.926 120.021 108.551 121.438C108.759 121.906 108.988 122.38 109.212 122.849C112.087 123.797 114.962 124.719 117.801 125.776C122.79 127.641 128.238 130.38 130.374 135.583C130.941 136.964 131.207 138.734 131.775 140.281C132.702 140.641 133.629 141.073 134.269 141.734C134.874 142.339 135.29 143.245 134.78 143.958C134.858 144.13 134.915 144.281 134.973 144.412C135.009 144.526 135.066 144.641 135.103 144.734C135.181 144.906 135.275 145.073 135.348 145.245C135.973 145.037 136.655 144.979 137.165 145.057C138.452 145.224 139.795 146.016 141.118 145.698C141.743 145.547 142.478 145.109 142.514 144.432C141.629 144.943 140.644 145.167 139.681 144.453C139.545 144.339 139.473 144.208 139.509 144.037C139.868 142.526 141.78 141.865 142.816 143.151C142.858 143.208 142.894 143.261 142.931 143.302C143.743 142.662 144.54 141.849 145.295 141.604C145.374 141.583 145.447 141.563 145.525 141.547C145.676 141.094 145.978 140.677 146.374 140.359C147.019 139.849 147.775 139.604 148.566 139.417C149.098 139.281 149.629 139.188 150.139 139C150.155 139 150.155 138.979 150.176 138.979C149.947 138.87 149.738 138.698 149.572 138.469C148.926 137.604 149.306 136.339 150.457 136.266C149.155 133.188 147.868 130.057 146.353 127.136ZM107.436 105.969C111.54 107.042 115.644 108.099 119.749 109.177C116.061 107.761 112.165 106.875 108.269 106.12C108.004 106.083 107.723 106.026 107.436 105.969ZM142.363 143.755C141.91 142.979 140.738 143.167 140.342 144C141.04 144.375 141.702 144.167 142.363 143.755ZM146.202 142.302C146.223 142.412 146.259 142.526 146.337 142.641C146.431 142.792 146.962 143.318 147.207 143.188C147.868 142.807 146.769 142.412 146.202 142.302ZM150.04 137.755C150.155 138.432 150.894 138.547 151.327 138.167C151.16 137.792 151.009 137.432 150.837 137.057C150.42 136.979 149.947 137.151 150.04 137.755ZM153.957 136.906C153.978 136.474 154.087 135.943 154.014 135.511C153.957 135.188 153.618 134.662 153.181 134.719C152.9 134.755 152.634 135.474 152.577 135.698C152.368 136.547 152.613 137.432 152.238 138.245C153.957 142.094 155.905 145.906 158.686 149.109C157.212 147.094 155.905 144.958 154.999 142.604C154.295 140.792 153.9 138.849 153.957 136.906ZM138.905 174.521C138.618 175.198 138.337 175.859 138.072 176.542C136.353 180.859 134.988 185.313 133.988 189.839C131.905 199.365 131.452 209.214 132.702 218.87C133.644 213.495 134.592 208.099 135.54 202.724C136.618 196.63 137.848 190.537 138.582 184.37C139.019 180.708 139.28 177.031 139.337 173.349C139.15 173.787 138.999 174.297 138.905 174.521ZM137.806 151.109C138.337 152.734 138.545 154.448 138.754 156.146C139.077 158.771 139.452 161.412 139.717 164.052C139.983 166.75 140.098 169.448 140.098 172.146C143.993 172.917 145.957 177.104 146.848 180.651C147.415 182.917 147.79 185.255 148.759 187.406C149.212 188.422 149.795 189.406 150.572 190.219C151.462 191.12 152.613 191.479 153.598 192.255C154.353 192.839 154.525 193.516 154.712 194.422C154.957 195.651 155.717 196.307 156.983 196.328C159.894 196.365 160.915 193.594 160.879 191.104C160.842 188.234 160.238 185.349 160.009 182.5C159.764 179.276 159.67 176.047 159.686 172.823C159.707 165.938 160.197 159.052 160.691 152.188C156.566 148.656 153.957 143.979 151.728 139.057C150.801 139.979 149.061 140.057 147.926 140.469C147.358 140.677 146.712 141.037 146.41 141.583C147.243 141.662 148.056 142.109 148.228 142.958C148.452 144.151 146.848 144.073 146.202 143.604C145.769 143.281 145.54 142.865 145.483 142.432C145.03 142.604 144.634 142.922 144.254 143.245C143.952 143.49 143.613 143.771 143.275 144.037C143.499 145.109 142.613 146.151 141.478 146.469C139.587 147 137.488 145.302 135.691 145.979C135.749 146.094 135.785 146.188 135.842 146.302C136.54 147.828 137.259 149.448 137.806 151.109ZM134.707 147.052C134.764 147.505 134.822 147.547 134.858 147.203C134.874 146.979 134.858 146.734 134.822 146.49C134.707 146.641 134.67 146.807 134.707 147.052ZM133.894 143.302C134.004 143.224 134.176 143.208 134.311 143.281C134.441 142.583 133.233 141.849 132.249 141.375C132.624 142.151 133.155 142.828 133.894 143.302ZM119.087 143.318C121.754 143.224 124.4 142.662 126.879 141.677C124.644 141.188 122.394 141.094 120.108 141.412C118.707 141.62 117.082 141.886 115.853 141.073C115.795 141.261 115.759 141.453 115.738 141.677C115.702 143.526 117.764 143.359 119.087 143.318ZM110.556 125.74C112.238 129.87 113.561 134.078 114.947 138.318C115.134 138.886 115.358 139.417 115.702 139.828C116.894 138.432 119.311 138.281 121.035 138.245C124.191 138.188 127.389 138.719 130.358 139.771C130.545 139.849 130.733 139.906 130.941 139.979C130.717 139.245 130.525 138.511 130.337 137.828C129.467 134.734 127.764 132.266 125.155 130.359C122.566 128.453 119.556 127.193 116.535 126.115C114.264 125.302 111.957 124.547 109.67 123.797C109.988 124.438 110.29 125.078 110.556 125.74ZM107.436 122.287C107.723 122.38 108.025 122.474 108.306 122.568C107.473 120.74 106.624 118.906 105.827 117.057C103.769 116.761 101.686 116.401 99.6444 116.021C98.8892 120.021 104.655 121.344 107.436 122.287ZM105.676 114.776C105.905 115.323 106.134 115.854 106.358 116.38C111.41 117.099 116.514 117.531 121.618 117.682C115.889 116.359 110.254 114.625 104.769 112.531C105.072 113.287 105.374 114.021 105.676 114.776ZM94.1028 106.422C95.1444 108.042 97.6965 108.776 99.3632 109.516C100.702 110.099 102.066 110.667 103.426 111.214C102.613 109.177 101.837 107.136 101.061 105.099C99.8528 104.781 98.6601 104.479 97.4517 104.156C96.5819 103.932 95.0663 103.214 94.2955 103.891C93.5767 104.495 93.634 105.682 94.1028 106.422ZM94.009 96.8543C93.3267 96.8387 92.9882 96.797 92.6497 97.4428C92.4205 97.896 92.3476 98.422 92.384 98.9324C92.4986 100.234 93.2903 101.234 94.3684 101.932C96.1653 103.083 98.509 103.479 100.629 103.891C100.499 103.537 100.363 103.177 100.233 102.818C99.6288 101.141 99.0403 99.4585 98.4517 97.7605C97.0142 97.271 95.5403 96.9116 94.009 96.8543ZM99.0611 97.1564C100.988 97.8178 102.858 98.6668 104.769 99.4012C107.415 100.401 110.139 101.292 112.863 102.026C117.098 103.177 121.394 103.984 125.743 104.495C120.561 103.328 115.436 101.854 110.348 100.495C108.212 99.9116 106.019 99.3855 103.92 98.7032C102.217 98.1407 100.478 97.4428 98.8528 96.573C98.9101 96.7449 98.983 96.948 99.0611 97.1564ZM97.4726 94.8387C96.9205 93.2137 96.1288 91.3855 96.2955 89.6512C96.2799 89.6512 96.259 89.6303 96.2434 89.6303C95.2226 89.3647 94.3476 89.6147 94.3684 90.8022C94.3892 91.5001 94.6913 92.1772 95.0872 92.7449C95.733 93.5939 96.5819 94.2553 97.4726 94.8387ZM93.8372 89.6303C94.2955 88.6668 95.1236 88.573 96.0507 88.8022C96.1861 88.8387 96.3163 88.8595 96.4309 88.896C96.4882 88.7085 96.5611 88.5001 96.6392 88.3126C96.7122 88.1616 96.9049 88.1043 97.0559 88.1407C97.0351 88.1407 97.0351 88.1407 97.0142 88.1199C95.7851 87.5939 95.5038 86.2345 95.2017 85.0678C95.0507 84.4064 94.8788 83.7449 94.7069 83.0835C92.5142 83.198 90.3424 83.5574 88.2434 84.198C86.7694 84.6303 85.2747 85.1772 83.9309 85.9324C82.7382 86.6147 81.1861 87.8387 81.2642 89.3647C81.3372 90.9324 83.0611 91.4793 84.3476 91.7085C85.3476 91.8751 86.3684 91.9532 87.3892 92.0262C87.7694 91.9689 88.1288 91.9116 88.509 91.8178C89.9049 91.4585 91.3997 90.2918 92.9153 90.6876C93.1601 90.7449 93.3684 90.8387 93.5767 90.9689C93.5767 90.5157 93.634 90.0835 93.8372 89.6303ZM91.7017 91.4585C91.0194 91.6095 90.3997 91.9532 89.7382 92.2137C91.0976 92.3282 92.4569 92.4585 93.8372 92.573C93.8944 91.573 92.4986 91.271 91.7017 91.4585Z" fill="#000002"/>
</g>
</svg>
