<svg width="232" height="424" viewBox="0 0 232 424" fill="none" xmlns="http://www.w3.org/2000/svg">
<path d="M71.939 182.488C66.347 186.597 62.355 192.646 62.15 199.069C61.969 204.743 64.669 210.196 68.033 215.033C70.709 218.881 73.913 222.545 78.134 225.093C82.355 227.641 87.725 228.967 92.683 227.866C97.733 226.745 101.784 223.25 104.272 219.21C106.76 215.17 107.88 210.597 108.79 206.069C110.04 199.843 110.934 193.35 108.976 187.267C103.495 170.245 84.311 173.399 71.939 182.488Z" fill="#F3C105"/>
<path d="M20.369 305.081C21.168 310.096 22.7401 315.121 25.9611 319.156C29.1811 323.191 34.263 326.11 39.606 325.936C45.611 325.739 50.7451 321.865 55.0751 317.889C63.1151 310.506 70.1091 302.097 75.8061 292.961C78.7381 288.26 81.364 283.266 82.268 277.878C84.238 266.139 76.762 253.617 65.164 249.226C32.495 236.859 16.77 282.49 20.369 305.081Z" fill="#F3C105"/>
<path d="M76.6811 62.4019C85.2981 69.9449 95.654 76.1919 104.399 83.6449C119.58 96.5829 129.721 113.612 129.249 131.098C128.943 142.455 124.28 153.52 123.702 164.87C123.124 176.22 128.035 188.995 141.091 194.152C151.969 198.449 165.763 196.061 175.445 190.297C185.128 184.532 191.341 175.954 196.091 167.236C215.502 131.61 213.61 89.0619 189.301 55.2899C180.622 43.2329 169.157 32.2509 154.814 24.0639C136.27 13.4799 111.353 6.84793 88.5921 11.9439C72.4511 15.5579 60.438 22.1559 61.164 36.8849C61.641 46.5229 68.6491 55.3719 76.6811 62.4019Z" fill="#F3C105"/>
<path d="M86.9699 135.318C83.9369 146.563 71.6439 152.539 65.5129 162.442C63.5319 165.641 62.2249 169.22 61.3119 172.87C59.3539 180.702 59.1829 188.976 60.8169 196.882C61.0919 198.215 61.5809 199.731 62.8539 200.212C63.5089 200.459 64.2369 200.368 64.9279 200.253C77.3879 198.183 88.2489 189.632 94.6679 178.754C101.087 167.876 103.361 154.9 102.774 142.283" stroke="#1E1200" stroke-miterlimit="10"/>
<path d="M141.542 74.2457C142.072 64.0007 146.081 52.7827 153.909 46.1517C164.506 37.1747 179.849 36.3977 193.554 38.6437C186.45 44.5527 184.624 54.5307 180.245 62.6677C174.036 74.2037 161.862 82.3117 148.825 83.5937" stroke="#1E1200" stroke-miterlimit="10"/>
<path d="M109.083 64.102C99.9309 52.987 96.9249 37.112 101.38 23.42C104.047 15.222 109.091 8.042 114.064 1C122.611 8.707 128.178 19.639 129.383 31.085C130.588 42.531 126.943 54.687 120.188 64.005" stroke="#1E1200" stroke-miterlimit="10"/>
<path d="M86.8899 73.2598C74.6849 72.8348 64.0819 63.5538 59.0529 52.4258C54.0239 41.2978 53.6779 28.6298 54.6159 16.4538C54.7239 15.0538 55.3109 12.8048 55.5639 11.4238C58.9339 11.8388 61.8149 13.9768 64.4249 16.1478C80.2749 29.3338 93.0549 47.7138 94.4519 68.2838" stroke="#1E1200" stroke-miterlimit="10"/>
<path d="M74.327 114.292C61.087 112.417 46.61 118.69 38.07 128.98C29.53 139.27 25.858 153.064 26.399 166.425C33.464 164.678 40.529 162.932 47.594 161.185C52.198 160.047 56.871 158.882 60.984 156.519C65.84 153.729 69.73 149.293 71.861 144.114C74.256 138.294 74.603 131.414 78.782 126.708" stroke="#1E1200" stroke-miterlimit="10"/>
<path d="M80.0509 81.3239C70.4139 72.4459 56.217 68.0879 43.131 68.7479C30.045 69.4069 17.424 73.6609 5.17395 78.3089C6.69795 82.8479 10.934 85.8819 15.14 88.1699C33.28 98.0389 55.7419 99.5849 75.0639 92.2949" stroke="#1E1200" stroke-miterlimit="10"/>
<path d="M118.586 142.611C122.373 147.975 126.16 153.339 129.948 158.704C132.899 162.884 135.888 167.135 137.571 171.967C139.825 178.437 139.566 185.646 137.45 192.163C135.334 198.68 131.437 204.531 126.692 209.474C126.055 210.138 125.324 210.825 124.407 210.912C123.491 210.999 123.261 210.929 122.343 209.91C116.603 204.821 110.607 199.343 108.396 191.997C106.726 186.45 107.435 180.503 108.159 174.756C109.462 164.407 110.765 154.057 112.068 143.708" stroke="#1E1200" stroke-miterlimit="10"/>
<path d="M154.8 108.876C166.172 105.704 179.219 105.514 190.517 108.94C201.815 112.367 209.024 118.859 215.928 128.436C217.695 130.887 220.571 134.955 220.367 137.97C209.041 140.119 197.08 142.227 186.21 138.386C174.023 134.079 165.121 122.902 152.779 119.062" stroke="#1E1200" stroke-miterlimit="10"/>
<path d="M148.762 126.71C158.828 131.682 163.635 144.124 171.442 152.192C175.459 156.343 180.601 159.187 185.237 162.633C189.873 166.078 194.231 170.494 195.513 176.126C196.451 180.248 194.977 185.196 193.909 189.287C189.458 188.391 185.006 187.494 180.555 186.598C175.549 185.59 170.495 184.567 165.832 182.484C157.181 178.62 150.369 171.221 146.255 162.686C142.142 154.151 140.59 144.541 140.713 135.067" stroke="#1E1200" stroke-miterlimit="10"/>
<path d="M153.538 93.7092C165.057 95.1672 178.826 96.0222 188.553 89.6802C199.31 82.6672 203.364 68.3112 213.961 61.0582C214.262 60.8522 214.587 60.6282 214.704 60.2832C214.939 59.5912 214.23 58.9652 213.6 58.5942C202.865 52.2582 189.038 52.4302 177.589 57.3612C166.14 62.2922 155.524 73.0822 148.825 83.5942" stroke="#1E1200" stroke-miterlimit="10"/>
<path d="M78.378 84.1868C65.722 84.5988 50.846 81.4918 40.989 73.5428C31.131 65.5938 25.182 52.2808 27.958 39.9258C39.012 41.5178 50.841 45.0718 60.389 50.8648C69.937 56.6578 78.99 66.2198 84.17 76.1128" stroke="#1E1200" stroke-miterlimit="10"/>
<path d="M130.378 67.0805C136.075 55.2115 148.366 45.0175 150.011 31.9545C151.06 23.6245 147.527 15.2375 148.483 6.89648C140.051 9.47248 133.016 15.6975 128.389 23.2025C123.763 30.7075 121.39 39.4255 120.342 48.1795C119.751 53.1135 120.815 60.2035 122.996 64.6675" stroke="#1E1200" stroke-miterlimit="10"/>
<path d="M100.829 142.041C95.9119 151.091 92.3969 160.152 89.7459 170.105C87.9819 176.726 86.7369 183.577 87.2509 190.41C87.7639 197.242 90.1699 204.101 94.9149 209.043C99.7359 207.553 104.728 205.968 108.448 202.559C110.964 200.253 112.741 197.236 114.029 194.076C116.496 188.02 117.258 181.405 117.503 174.87C117.889 164.566 116.964 153.464 114.916 143.358" stroke="#1E1200" stroke-miterlimit="10"/>
<path d="M153.089 116.392C169.796 118.266 186.091 126.219 199.358 136.543C206.465 142.073 213.49 150.012 214.981 158.892C209.32 159.764 203.658 160.637 197.997 161.51C192.799 162.311 187.506 163.113 182.305 162.333C174.189 161.116 167.031 156.098 161.647 149.903C156.263 143.708 151.429 135.689 147.639 128.409" stroke="#1E1200" stroke-miterlimit="10"/>
<path d="M154.8 98.1419C167.277 90.7179 178.732 78.5149 193.196 77.2539C203.278 76.3749 207.749 79.7679 216.53 84.7999C219.663 86.5949 225.95 88.6509 230.257 88.8779C225.483 91.5619 220.709 94.2459 215.936 96.9299C207.238 101.82 198.379 106.774 188.635 108.925C177.937 111.287 165.695 110.04 154.801 108.874" stroke="#1E1200" stroke-miterlimit="10"/>
<path d="M74.642 95.7217C67.115 94.3017 59.526 92.8757 51.868 92.9997C44.21 93.1237 36.38 94.9107 30.166 99.3887C22.596 104.844 17.928 113.861 9.78699 118.421C30.657 125.393 54.128 124.234 74.209 115.239" stroke="#1E1200" stroke-miterlimit="10"/>
<path d="M94.917 67.9859C88.49 59.3819 82.027 50.6289 78.022 40.6639C74.017 30.6989 72.674 19.2279 76.657 9.25391C86.206 15.5709 95.285 22.3699 101.423 32.0349C107.561 41.6999 111.021 53.2819 109.874 64.6739" stroke="#1E1200" stroke-miterlimit="10"/>
<path d="M133.901 68.2769C137.315 52.5819 149.078 38.9599 164.109 33.2969C170.94 30.7229 178.246 29.7309 185.48 28.7559C183.183 39.3219 177.142 48.8489 169.399 56.3969C161.656 63.9449 152.263 69.6249 142.467 74.2019" stroke="#1E1200" stroke-miterlimit="10"/>
<path d="M77.989 126.498C66.619 134.978 56.034 145.809 52.546 159.557C51.62 163.207 51.222 166.968 50.826 170.713C50.202 176.617 49.579 182.521 48.955 188.426C54.135 189.469 59.601 187.997 64.103 185.231C68.605 182.464 72.242 178.489 75.426 174.271C83.384 163.73 88.862 151.328 91.294 138.346" stroke="#1E1200" stroke-miterlimit="10"/>
<path d="M126.064 141.078C126.232 153.892 126.689 166.841 130.026 179.214C133.363 191.587 139.854 203.487 150.128 211.147C155.435 204.319 156.533 195.122 156.234 186.479C155.617 168.619 149.776 150.97 139.617 136.268" stroke="#1E1200" stroke-miterlimit="10"/>
<path d="M134.339 138.82C124.882 142.524 114.48 144.38 104.426 142.779C94.372 141.178 84.723 135.856 79.211 127.476C73.715 119.121 72.737 108.573 74.064 98.7221C74.679 94.1551 75.75 89.606 77.751 85.436C84.121 72.161 96.217 66.234 108.835 64.519C122.037 62.724 130.264 65.666 139.491 72.763C149.918 80.783 155.582 93.029 154.712 106.154C153.635 122.417 146.587 134.023 134.339 138.82Z" stroke="#1E1200" stroke-miterlimit="10"/>
<path d="M95.4489 110.062C94.9349 113.826 96.3119 117.733 98.8199 120.587C101.328 123.441 104.883 125.274 108.607 126.026C115.573 127.432 123.409 124.793 127.459 118.954C128.699 117.167 129.575 115.138 130.117 113.031C131.813 106.45 129.942 98.879 124.836 94.394C119.73 89.909 111.452 89.178 106.039 93.287" stroke="#1E1200" stroke-miterlimit="10"/>
<path d="M100.586 76.002C109.11 71.527 119.731 71.286 128.449 75.368C137.167 79.451 143.782 87.763 145.803 97.176" stroke="#1E1200" stroke-miterlimit="10"/>
<path d="M118.586 142.611C124.559 161.523 122.819 185.406 115.879 203.985C108.329 224.199 107.5 246.86 113.553 267.572C117.651 281.594 124.748 294.582 129.034 308.548C136.856 334.032 137.199 370.201 125.267 407.443" stroke="#1E1200" stroke-miterlimit="10"/>
<path d="M55.1759 300.341C59.6619 290.819 68.9739 283.891 79.2589 281.648C89.5439 279.405 100.603 281.682 109.563 287.207C118.523 292.732 125.405 301.349 129.5 311.046" stroke="#1E1200" stroke-miterlimit="10"/>
<path d="M96.4359 280.962C96.6569 272.671 91.542 264.637 84.226 260.731C76.909 256.825 67.76 256.921 60.211 260.357C52.662 263.793 46.7289 270.345 43.3779 277.933C40.0269 285.521 39.157 294.073 40.168 302.305C41.464 312.859 45.749 323.024 45.7 333.657C45.68 338.033 44.92 342.416 45.379 346.769C45.838 351.121 47.8369 355.664 51.7579 357.607C47.8939 355.535 46.147 350.79 46.28 346.408C46.532 338.087 51.9339 330.632 58.6259 325.681C65.3179 320.73 73.2589 317.826 80.9689 314.689C86.1439 312.583 91.3779 310.273 95.4549 306.453C99.5319 302.633 102.304 296.983 101.307 291.485C100.63 287.756 98.6519 284.036 96.4359 280.962Z" stroke="#1E1200" stroke-miterlimit="10"/>
<path d="M134.739 339.178C139.374 332.813 147.406 329.391 155.28 329.378C163.153 329.364 170.815 332.476 177.195 337.09C183.574 341.704 188.778 347.761 193.407 354.129" stroke="#1E1200" stroke-miterlimit="10"/>
<path d="M193.855 420.812C196.786 414.327 197.666 406.933 196.339 399.941C195.466 395.343 193.673 390.956 191.449 386.838C185.81 376.394 177.032 367.343 165.987 362.997C162.427 361.596 158.672 360.689 155.23 359.02C149.71 356.342 145.037 351.429 143.801 345.42C142.565 339.411 145.429 332.479 151.057 330.038C147.956 323.349 152.32 314.215 158.371 310.002C164.422 305.789 172.64 305.527 179.556 308.081C186.472 310.635 192.217 315.688 196.909 321.375C207.579 334.306 213.484 351.194 212.674 367.939C212.43 372.984 212.024 378.96 211.113 383.928C209.439 393.056 206.529 399.548 202.386 407.852C200.246 412.141 198.003 416.113 193.855 420.812Z" stroke="#1E1200" stroke-miterlimit="10"/>
<path d="M36.824 226.087C45.423 223.235 54.255 220.863 63.294 220.26C72.333 219.656 81.64 220.897 89.737 224.959C97.601 228.904 103.991 235.323 109.232 242.389" stroke="#1E1200" stroke-miterlimit="10"/>
<path d="M76.445 214.683C73.063 213.24 69.436 212.452 65.799 211.918C55.869 210.46 45.508 210.881 36.118 214.426C21.748 219.853 11.005 231.95 2 244.393C7.229 241.69 12.938 239.919 18.779 239.19C22.489 238.727 26.279 238.673 29.869 237.631C32.68 236.815 35.288 235.415 38.067 234.496C42.353 233.08 47.024 232.85 51.428 233.838C57.168 235.126 62.459 238.426 68.336 238.676C71.758 238.821 75.218 237.879 78.093 236.017C80.408 234.518 82.28 232.486 84.307 230.643C85.882 229.212 89.118 227.626 88.75 225.115C88.096 220.655 80.092 216.239 76.445 214.683Z" stroke="#1E1200" stroke-miterlimit="10"/>
<path d="M141.618 257.859C131.313 266.98 125.607 284.174 125.267 297.931" stroke="#1E1200" stroke-miterlimit="10"/>
<path d="M165.332 244.045C156.944 241.031 148.172 239.089 139.296 238.283C137.2 238.093 134.801 238.073 133.347 239.595C132.01 240.995 132.008 243.265 132.769 245.045C133.53 246.825 134.906 248.253 136.164 249.724C147.979 263.542 150.242 284.749 141.609 300.749C146.466 292.712 154.36 286.091 163.122 282.713C169.209 280.366 175.736 279.445 182.19 278.487C187.289 277.73 193.212 276.329 195.248 271.593C197.292 266.837 194.12 261.431 190.344 257.89C183.42 251.396 174.265 247.255 165.332 244.045Z" stroke="#1E1200" stroke-miterlimit="10"/>
<path d="M90.874 98.251C94.735 98.251 94.741 92.251 90.874 92.251C87.013 92.251 87.007 98.251 90.874 98.251Z" fill="#1E1200"/>
<path d="M101.561 103.706C103.491 103.706 103.495 100.706 101.561 100.706C99.63 100.706 99.627 103.706 101.561 103.706Z" fill="#1E1200"/>
<path d="M111.334 137.202C113.264 137.202 113.268 134.202 111.334 134.202C109.403 134.202 109.4 137.202 111.334 137.202Z" fill="#1E1200"/>
<path d="M61.028 106.043C62.476 106.043 62.478 103.793 61.028 103.793C59.581 103.793 59.578 106.043 61.028 106.043Z" fill="#1E1200"/>
<path d="M88.0581 89.5254C89.5061 89.5254 89.5081 87.2754 88.0581 87.2754C86.6101 87.2754 86.6081 89.5254 88.0581 89.5254Z" fill="#1E1200"/>
<path d="M82.427 101.163C83.392 101.163 83.394 99.6631 82.427 99.6631C81.462 99.6631 81.46 101.163 82.427 101.163Z" fill="#1E1200"/>
<path d="M121.094 108.293C124.955 108.293 124.961 102.293 121.094 102.293C117.234 102.293 117.227 108.293 121.094 108.293Z" fill="#1E1200"/>
<path d="M123.535 224.675C124.5 224.675 124.502 223.175 123.535 223.175C122.569 223.175 122.568 224.675 123.535 224.675Z" fill="#1E1200"/>
<path d="M169.71 173.242C171.158 173.242 171.16 170.992 169.71 170.992C168.263 170.992 168.26 173.242 169.71 173.242Z" fill="#1E1200"/>
</svg>
