<svg width="23" height="32" viewBox="0 0 23 32" fill="none" xmlns="http://www.w3.org/2000/svg">
<path d="M11.2 15.2C10.1391 15.2 9.12172 14.7786 8.37157 14.0284C7.62143 13.2783 7.2 12.2609 7.2 11.2C7.2 10.1391 7.62143 9.12172 8.37157 8.37157C9.12172 7.62143 10.1391 7.2 11.2 7.2C12.2609 7.2 13.2783 7.62143 14.0284 8.37157C14.7786 9.12172 15.2 10.1391 15.2 11.2C15.2 11.7253 15.0965 12.2454 14.8955 12.7307C14.6945 13.216 14.3999 13.657 14.0284 14.0284C13.657 14.3999 13.216 14.6945 12.7307 14.8955C12.2454 15.0965 11.7253 15.2 11.2 15.2ZM11.2 0C8.22958 0 5.38081 1.18 3.2804 3.2804C1.18 5.38081 0 8.22958 0 11.2C0 19.6 11.2 32 11.2 32C11.2 32 22.4 19.6 22.4 11.2C22.4 8.22958 21.22 5.38081 19.1196 3.2804C17.0192 1.18 14.1704 0 11.2 0Z" fill="#9A563A"/>
</svg>
