<svg xmlns="http://www.w3.org/2000/svg" xmlns:xlink="http://www.w3.org/1999/xlink" width="428" zoomAndPan="magnify" viewBox="0 0 321 133.500001" height="178" preserveAspectRatio="xMidYMid meet" version="1.0"><path fill="#ffd180" d="M 261.289062 1.117188 C 255.886719 2.21875 252.511719 3.320312 249.136719 6.46875 C 238.328125 16.066406 237.429688 25.039062 229.105469 38.257812 C 218.523438 55.414062 213.570312 57.460938 199.84375 69.425781 C 198.039062 70.839844 196.691406 72.257812 195.117188 73.675781 C 182.289062 84.851562 170.804688 106.410156 185.210938 120.261719 C 188.140625 122.9375 191.289062 125.140625 195.566406 127.34375 C 199.617188 129.386719 203.445312 131.75 209.296875 130.175781 C 213.351562 129.078125 217.175781 126.398438 220.777344 124.511719 C 224.605469 122.464844 228.429688 120.261719 233.15625 119.316406 C 237.65625 118.371094 244.1875 117.902344 248.914062 118.847656 C 258.59375 120.734375 272.324219 133.011719 289.429688 124.828125 C 313.066406 113.496094 302.484375 95.234375 310.589844 76.507812 C 313.515625 69.582031 320.042969 59.035156 315.992188 49.277344 C 313.511719 42.980469 309.464844 41.089844 306.984375 38.886719 C 305.636719 37.625 308.335938 38.101562 304.058594 35.894531 C 302.257812 34.949219 297.082031 29.914062 295.28125 27.082031 C 294.152344 25.351562 293.476562 23.460938 292.578125 21.101562 C 289.425781 11.972656 284.023438 8.035156 275.695312 3.472656 C 270.96875 0.953125 267.367188 0.0117188 261.289062 1.113281 Z M 261.289062 1.117188 " fill-opacity="1" fill-rule="evenodd"/><path fill="#97b38f" d="M 4.894531 62.589844 C 7.839844 52.753906 13.347656 43.824219 23.957031 37.601562 C 40.703125 27.773438 53.472656 30.496094 60.882812 28.511719 C 86.324219 21.691406 90.84375 3.5 117.039062 0.746094 C 123.652344 0.0507812 130.566406 0.671875 136.503906 3.667969 C 142.441406 6.667969 147.265625 12.28125 148.234375 18.855469 C 150.023438 30.984375 139.105469 41.332031 137.160156 53.4375 C 135.824219 61.777344 138.855469 70.105469 141.027344 78.269531 C 143.195312 86.433594 144.375 95.714844 139.84375 102.847656 C 135.078125 110.359375 125.371094 113.152344 116.464844 113.324219 C 107.558594 113.492188 98.648438 111.660156 89.789062 112.582031 C 71.929688 114.449219 61.277344 126.953125 43.496094 124.457031 C 29.1875 122.449219 16.839844 119.375 7.753906 103.464844 C 0.59375 90.925781 1.335938 74.492188 4.894531 62.589844 Z M 4.894531 62.589844 " fill-opacity="1" fill-rule="nonzero"/></svg>