<svg xmlns="http://www.w3.org/2000/svg" viewBox="0 0 351 62"><path d="m240.046 27.85-.002.002-.214.13.008.012.008.011c.114.147.276.248.478.238l.061-.003.036-.002.033-.011-.08-.237v-.002l.081.239c.047-.016.128-.033.254-.049l.008-.001.008-.002-.047-.241-.001-.007.047.248c.144-.028.264-.056.351-.085l.002-.001c.204-.071.382-.166.509-.294.135-.136.209-.307.2-.501l-.002-.041-.015-.038-.235.091.235-.091-.052-.135h-.001c-.066-.181-.184-.326-.354-.418-.165-.09-.361-.119-.567-.109-.202.01-.418.055-.645.132-.161.055-.291.158-.373.31-.078.145-.101.315-.093.49.009.18.056.347.146.496z"></path><path d="m27.017 46.906.002-.002-.109-.227z"></path><path d="m178.659 33.607.001-.002c-.002-.002-.004-.002-.006-.003-.003-.002-.004-.005-.006-.008l-.002.003c-.127-.11-.282-.159-.447-.151-.188.009-.34.12-.457.249l.186.169-.002-.001-.184-.168-.012.013-.01.015c-.002.003-.021.03-.024.036-.003.004-.011.016-.014.021-.002.002-.006.009-.008.011-.001.001-.003.005-.004.006 0 .001-.001.002-.002.003 0 0-.001.001-.001.001s-.001.001-.001.002c-.007.011-.001.001-.008.012-.001.001-.008.011-.009.013-.007.012-.009.014-.018.027-.017.025-.021.032-.04.059-.389.567-.731 1.049-1.026 1.447v.001c-.283.385-.65.847-1.101 1.386l.129.108-.089-.074-.04-.034c-.435.52-.848.922-1.241 1.212-.304.221-.564.343-.788.391.023-.065.044-.128.084-.219.11-.256.281-.598.514-1.03v-.001l-.182-.096-.041-.022.222.119c.465-.873.938-1.685 1.418-2.436l-.007-.004c.082-.113.102-.25.097-.36-.008-.168-.086-.307-.208-.414l.003-.003c-.003-.004-.008-.004-.012-.008-.005-.004-.007-.01-.012-.015l-.003.004c-.123-.116-.276-.176-.447-.168-.201.01-.361.114-.475.27l-.015.022-.011.024.23.102h.001l-.231-.102c.006-.013.009-.017-.003.003-.009.014-.021.034-.039.061-.034.054-.085.13-.151.23l-.001.002.21.137h.001l-.211-.138c-.122.187-.226.348-.311.485-.045.066-.097.147-.157.243-.754.327-1.623.52-2.615.568-.578.028-1.169.016-1.772-.036-.595-.062-1.327-.169-2.196-.32-.779-.136-1.265-.218-1.483-.251-.076-.073-.162-.133-.255-.172l.001-.001c-.004-.002-.008-.003-.012-.005-.004-.001-.007-.004-.01-.006l-.001.001c-.148-.074-.303-.117-.461-.11-.105.005-.211.056-.292.102l.123.22-.001-.001-.122-.219-.025.014-.021.019c-.332.301-.63.59-.912.873-2.5 1.538-4.512 2.802-6.006 3.775-1.461.948-2.876 1.939-4.252 2.965.085-.185.328-.705.753-1.606l-.228-.108.229.107c.481-1.032.809-1.729.984-2.093.176-.364.431-.879.766-1.547.344-.676.635-1.22.877-1.633l.016-.028.009-.031-.243-.068.243.068.052-.186.011-.039-.002-.041c-.009-.196-.119-.342-.27-.442l.002-.003c-.003-.002-.007-.003-.01-.005-.002-.001-.003-.003-.004-.004l-.001.001c-.141-.098-.299-.155-.472-.147-.167.008-.333.077-.44.23l-.008-.006c-1.29 1.514-2.429 2.694-3.419 3.546-.838.72-1.548 1.18-2.149 1.426.185-.629.57-1.372 1.173-2.234.622-.885 1.288-1.681 1.997-2.387l-.172-.173.173.173.008-.009-.187-.169.187.17c.108-.119.168-.266.16-.431-.009-.196-.108-.359-.25-.488-.141-.128-.313-.212-.509-.203-.181.009-.338.085-.459.218l-.006.008c-1.124 1.338-1.975 2.495-2.548 3.469-.569.966-.884 1.783-.893 2.432l.253.003-.252.012c.014.293.093.557.281.743.192.189.453.255.737.241.516-.024 1.155-.32 1.9-.823.608-.411 1.313-.984 2.107-1.702l-2.333 4.762.226.111-.226-.111-.003.005c-.208.45-.473.797-.791 1.051l.153.192-.031-.038-.123-.154-.001.001c-1.04.841-2.717 2.364-5.029 4.564-1.168 1.091-2.039 2.069-2.606 2.934l-.001.001.212.137-.212-.137c-.555.859-.858 1.597-.83 2.19.017.347.135.646.375.864.244.222.565.307.927.29.536-.026 1.109-.258 1.712-.665.606-.407 1.259-1 1.959-1.771l-.186-.169.021.019.165.151.002-.002c1.539-1.726 3.093-4.15 4.664-7.263.037-.073.097-.192.178-.354.085-.158.132-.244.148-.27.038-.046.081-.1.135-.177.058-.084.117-.156.174-.22 0 0-.001 0 .001-.001 0 0 .001-.001.001-.001h.001c.001-.001 0 0 .001-.001s0 0 .001-.001c.002-.001 0 0 .002-.002 0 0 .001-.001.001-.001h.001.001.001l.001-.001h.001s0-.001.001-.001 0 0 .001 0 0 0 .001 0c0-.001 0 0 .001-.001s0 0 .002-.002c0 0 0-.001.001-.001 0-.001 0 0 0-.001.001-.001.001 0 .001-.001.001-.001.001 0 .001-.001.001-.001.001 0 .001-.001h.001.001c.001-.001.001 0 .001-.001h.001c.003-.002-.001.001.001-.001.011-.009-.008.007.003-.002 0 0 0-.001.001-.001.001-.002-.001.001.001-.001h.001.001c.001-.001 0 0 .002-.002.003-.003 0 0 .004-.003 0-.001 0 0 .001-.001 0-.001 0 0 .001-.001.002-.002 0 0 .002-.002.003-.003.013-.011.017-.014.011-.009-.003.002.008-.007.006-.005.003-.002.009-.007.012-.01.006-.005.018-.015s.005-.005.018-.015c.004-.003 0 0 .004-.004.002-.002.001 0 .003-.002 0 0 .001-.001.001-.001.001-.001 0 0 .001-.001s0 0 .001-.001h.001l.001-.001c.001-.001.001 0 .002-.001.004-.003 0 0 .004-.004.017-.014.002-.002.019-.016.001-.001.004-.003.005-.004.005-.004.001 0 .005-.004.009-.007.001-.001.01-.008.002-.002.008-.006.01-.008.007-.005.003-.003.01-.008.003-.003.002-.001.005-.004.001-.001.004-.003.005-.004.005-.004.006-.005.01-.008.01-.008.002-.001.011-.009.001-.001 0 0 .001-.001h.001s0 0 0-.001c.002-.001.001-.001.003-.002.004-.003.002-.002.005-.004.007-.006.004-.003.011-.009.012-.01-.001.001.011-.009.004-.004.017-.014.022-.018 1.202-.949 2.554-1.931 4.059-2.947l.001-.001c1.51-1.03 2.653-1.785 3.431-2.268l-.133-.214.003.005.13.21.001-.001c.342-.214.811-.506 1.393-.866-.232.48-.359.932-.34 1.345.019.404.186.753.487 1.038l-.001.001c.292.276.638.414 1.027.396.541-.026 1.083-.315 1.622-.808l-.17-.186.027.029.144.157.001-.002c.532-.495.967-1.091 1.303-1.784h.001c.347-.703.517-1.36.488-1.965-.005-.097-.04-.182-.056-.274 1.92.316 3.485.456 4.657.4.772-.037 1.48-.147 2.137-.314-.065.123-.124.232-.196.378-.001.001-.001.002-.002.004-.133.256-.239.494-.314.713h-.001c-.076.207-.14.424-.193.649h.001c-.055.22-.083.424-.074.608.014.287.102.551.326.712l-.002.002c.001.001.004.001.005.002s.001.003.003.004l.001-.002c.195.143.482.193.803.199l.005-.252.012.252c.569-.027 1.098-.247 1.585-.643s.001-.001.001-.001.001 0 .001-.001c.396-.316.823-.749 1.272-1.251-.008.035-.013.056-.022.092l.245.059-.245-.059-.001.006c-.093.426-.16.783-.199 1.069-.04.293-.052.589-.038.889.021.439.084.801.207 1.064l.228-.106-.003.002-.225.104.003.006.003.006c.156.291.431.459.773.528l.05-.248-.05.247.031.006.031-.001c.211-.01.41-.06.563-.181.162-.128.239-.31.251-.511l.001-.013-.001-.013c-.009-.187-.084-.348-.205-.484l.003-.002c-.007-.012-.016-.017-.024-.027-.011-.011-.015-.026-.027-.037l-.003.003c-.037-.034-.074-.057-.089-.063-.033-.013-.066-.021-.091-.025-.04-.007-.089-.01-.139-.013l-.031-.22c-.027-.59.098-1.393.391-2.422v-.001c.291-1.036.7-2.042 1.225-3.021l-.222-.119h.001l.221.119.014-.027.008-.03.052-.201.009-.037-.002-.038c-.007-.178-.088-.323-.217-.431zm-.168.185.003-.004zm-5.513 3.06.001.001zm-9.571.655.008.006.185.157.005-.006c.131-.165.246-.295.344-.393l.008-.008.008-.009-.192-.158-.003-.003.195.161c.093-.113.206-.243.34-.39.135-.148.232-.249.292-.307l.007-.007.007-.007c.054-.059.13-.138.213-.221.021.059.039.121.043.199.025.539-.228 1.245-.827 2.136-.3.439-.564.759-.792.969-.221.202-.376.27-.48.282l-.062-.019c-.075-.051-.131-.135-.14-.308-.003-.074.009-.166.047-.279l.002-.008.003-.008-.242-.062-.002-.001.245.063c.03-.117.073-.236.132-.358l.003-.007.003-.007-.231-.093.231.094c.047-.116.118-.247.216-.395.102-.154.199-.292.291-.414l.006-.008c.09-.129.2-.271.331-.426zm-.653 2.659v.001zm.307-2.215.055.042zm-13.23 1.853.003.001.185.064zm.525 6.55-.002-.001zm-5.226 7.145-.162-.193c-.547.458-1.026.712-1.441.797l-.065.003c-.004 0-.004 0-.008 0 .056-.429.298-.974.781-1.65.506-.708 1.25-1.53 2.239-2.469.307-.283.907-.864 1.801-1.74.642-.63 1.16-1.123 1.565-1.492-.193.345-.383.688-.589 1.042-.317.539-.731 1.186-1.244 1.942l-.001.001c-.51.763-1.003 1.432-1.478 2.008-.482.582-1.001 1.101-1.556 1.555zm5.01-7.283-.035-.031-.001-.002zm-3.839 3.589-.001-.001zm1.914.076-.001-.001-.028-.019zm1.204-1.984.049.029zm25.736-13.84.002-.002zm-1.09.878-.001-.001zm-4.775.885.002-.027zm-15.982 6.693-.185-.082-.001-.001zm.956-4.237.005.002zm-8.464 10.986-.002-.002zm5.984-4.077.006.003zm22.969-6.398.003.003zm1.517-1.526.001.001z"></path><path d="m183.937 35.561.004-.004-.19-.165z"></path><path d="m340.994 14.087c-.007-.137-.044-.277-.141-.39-.091-.104-.21-.154-.335-.176l.001-.003-.093-.026-.069.243.069-.243-.04-.011-.041.002c-.177.008-.36.082-.542.188v-.001c-.002.001-.003.002-.005.003s-.003.001-.005.002v.001c-.09.049-.172.101-.238.159-.068.059-.135.138-.167.239l.24.077-.24-.077-.014.044.002.046.014.282-.017.138c-.711 2.089-1.537 4.203-2.478 6.344v.001c-.969 2.227-1.751 3.985-2.346 5.275-.598 1.296-1 2.105-1.213 2.447l.213.133-.213-.133-.009.015-.007.016c-.046.103-.078.216-.073.33.01.204.118.364.283.469l.135-.213-.135.213.016.01.017.008c.098.044.215.047.314.042.278-.013.491-.176.644-.41l.005-.009-.21-.125-.006-.004.216.129c.379-.636 1.56-3.215 3.533-7.703l-.231-.102.232.101c.873-2.01 1.551-3.608 2.033-4.793.48-1.178.773-1.964.869-2.341l.002-.012.025-.124-.247-.049.247.049.006-.03z"></path><path d="m330.201 27.498-.024.001-.025.006-.151.038.061.245-.002-.007-.059-.237-.007.002-.007.002c-1.643.513-3.111.797-4.406.859-2.328.111-4.048-.508-5.211-1.814l-.189.168.17-.187c-.161-.146-.354-.225-.571-.215l.012.252-.069-.243c-.155.044-.299.113-.405.225-.113.12-.164.269-.157.43l.001.021.005.02.246-.053-.246.053c.015.071.055.216.115.424l.003.011.235-.08h.001l-.237.08c.066.194.1.363.107.507.034.729-.211 1.607-.771 2.643-.56 1.025-1.225 1.902-1.994 2.634-.776.728-1.396 1.056-1.87 1.082-.249-.017-.362-.069-.403-.106-.008-.01-.031-.047-.054-.149-.025-.103-.042-.245-.051-.43-.026-.536.058-1.202.261-2.003l-.236-.06.016.004.22.055v-.001c.204-.819.43-1.581.678-2.288l-.238-.084.239.083c.126-.365.224-.665.293-.9.068-.23.114-.413.127-.535l-.25-.027.25.027.002-.02v-.02c-.009-.173-.089-.318-.219-.426l.002-.002c-.003-.002-.006-.003-.008-.005s-.003-.004-.005-.005l-.001.002c-.119-.104-.264-.174-.433-.166-.203.01-.352.125-.452.284l-.004-.003c-.198.261-.492.695-.882 1.295l.209.136-.018-.011-.192-.125-.002.002c-.378.598-.742 1.159-1.093 1.683l.208.139-.036-.024-.172-.115-.001.001c-.339.512-.709 1.035-1.109 1.571-.396.529-.771.946-1.125 1.255-.348.302-.61.424-.797.439l-.074-.015c0-.001 0-.001 0-.002-.011-.243.05-.582.204-1.028.154-.442.393-.973.722-1.594l.001-.002-.221-.115-.003-.001.224.116c.648-1.253 1.331-2.343 2.05-3.271l-.199-.154.001.001.198.154.002-.002c.018-.024.073-.074.194-.147.131-.079.201-.12.217-.129l.035-.02.028-.03c.111-.122.152-.275.145-.43-.011-.229-.121-.427-.289-.593l.001-.001c-.001-.001-.003-.002-.004-.003s-.002-.003-.003-.004l-.001.001c-.161-.168-.36-.279-.594-.268-.152.007-.286.098-.389.185-.112.095-.233.229-.363.392-.26.328-.578.809-.953 1.436-.045.074-.08.136-.123.208l-.023.01c-.765.339-1.652.536-2.664.584-.578.028-1.168.016-1.771-.036-.597-.062-1.328-.169-2.197-.32-.779-.136-1.265-.218-1.483-.251-.076-.073-.162-.133-.255-.172l.001-.001c-.004-.002-.008-.003-.012-.005-.003-.001-.007-.004-.01-.005l-.001.001c-.148-.074-.303-.117-.462-.11-.105.005-.21.056-.291.102l.123.22-.001-.001-.122-.219-.025.014-.021.019c-.33.3-.627.587-.908.868-.337.224-.979.655-1.955 1.31-1.224.812-2.324 1.531-3.302 2.158-.978.616-2.095 1.306-3.352 2.068-1.252.749-2.367 1.343-3.343 1.782-.983.432-1.712.645-2.201.669-.278.013-.444-.052-.546-.151-.105-.101-.186-.28-.2-.586-.018-.383.071-.907.287-1.581.215-.67.549-1.474 1.006-2.412l-.214-.103-.013-.007.227.11c.91-1.881 2.074-3.867 3.491-5.959.38-.397 1.03-1.074 1.952-2.036l-.182-.175.06.057.122.117c.943-.983 1.696-1.774 2.259-2.372.564-.599 1.273-1.362 2.126-2.29.864-.929 1.559-1.72 2.084-2.373.532-.65 1.067-1.33 1.606-2.041.543-.716.947-1.346 1.208-1.889.266-.545.416-1.023.421-1.425l-.252-.003.251.003v-.007-.007c-.015-.296-.113-.554-.315-.745l.003-.002c-.002-.002-.005-.003-.008-.005-.002-.002-.003-.005-.005-.008l-.002.003c-.199-.2-.46-.284-.755-.27-.4.019-.805.192-1.208.485-.405.294-.822.718-1.254 1.263l-.003.004c-3.411 4.5-6.441 8.806-9.09 12.917-.181.188-.411.391-.693.609l-.003.003c-.29.232-.542.454-.754.665l.11.111-.111-.111-.008.009.182.165.005.005-.187-.17c-.097.106-.171.277-.234.465l-.003.012.241.068.002.001-.243-.068c-.057.201-.086.389-.078.558.005.111.024.232.083.332.001.002.004.003.005.005-.288.488-.558.957-.809 1.409-2.79 1.639-4.942 2.976-6.461 4.013.032-.073.058-.136.094-.217h-.001c.166-.364.292-.647.375-.848l-.232-.097.008.003.226.094.001-.005c.088-.223.166-.49.235-.797.072-.318.102-.628.088-.928-.025-.525-.213-.958-.582-1.267-.248-.208-.586-.327-.96-.409.018-.038.051-.066.064-.107l.001-.004-.232-.072-.005-.002.236.073c.08-.255.113-.515.101-.779-.021-.446-.19-.826-.504-1.125l.001-.001c-.001-.001-.002-.002-.003-.003 0 0 0-.001-.001-.001-.305-.299-.679-.443-1.104-.423-.507.024-1.069.273-1.677.7-.6.422-1.09.827-1.464 1.216-.353.367-.687.739-.999 1.116l.193.161-.002-.002-.191-.159-.001.001c-.364.443-.64.847-.824 1.212-.182.362-.282.702-.267 1.012.009.183.052.365.168.502.127.149.304.202.485.193l.015-.001.016-.003c.128-.022.296-.102.48-.204.194-.108.439-.259.733-.453.574-.378 1.225-.752 1.954-1.119l-.113-.225.002.004.111.221.003-.001c.716-.371 1.343-.561 1.885-.586.465-.022.775.037.963.142.168.093.255.231.265.45.018.373-.092.874-.358 1.515-.265.637-.675 1.392-1.234 2.267-.195.287-.348.489-.461.614-.112.113-.302.269-.583.473-3.133 2.224-5.733 4.39-7.798 6.498-.673.676-1.286 1.43-1.836 2.264h.001c-.559.832-.862 1.564-.832 2.176.014.296.112.554.314.745l-.003.002c.002.002.006.003.008.005s.003.005.005.007l.002-.002c.194.196.442.285.724.271.509-.024 1.142-.328 1.88-.843.748-.522 1.642-1.29 2.679-2.296l-.175-.181.004.004.172.177.002-.001c.917-.9 1.938-2.09 3.065-3.565 1.135-1.462 2.179-2.906 3.133-4.33.001-.002.003-.005.004-.007 0 0 0-.001.001-.001.042-.059.091-.135.146-.227.001-.002.001-.002.002-.004 0 0 0-.001.001-.001.032-.051.059-.094.078-.126.012-.02.023-.042.035-.063.014-.022.037-.057.072-.106.018-.023.032-.04.043-.05.011-.011.015-.012.01-.009l.02-.011.017-.015-.16-.193-.001-.002.161.195c.034-.028.08-.063.137-.105l.01-.008.01-.009c.049-.045.114-.098.196-.158 2.484-1.679 4.61-3.068 6.386-4.175-.242.5-.465.983-.646 1.425-.568 1.387-.848 2.517-.808 3.372.028.571.205 1.043.559 1.38.001.001.002.001.002.002.001.001.002.003.004.004l.001-.001c.356.355.857.496 1.457.467.89-.042 2.098-.46 3.607-1.218 1.521-.759 2.889-1.537 4.105-2.334l-.138-.211.001.002.137.209h.001c1.208-.798 2.627-1.762 4.251-2.89-.182.419-.282.817-.264 1.184.019.404.186.754.486 1.039.292.276.638.414 1.027.396.541-.026 1.082-.315 1.622-.808l.001-.002c.532-.495.967-1.091 1.303-1.784h.001c.346-.703.517-1.36.488-1.965-.005-.097-.04-.182-.056-.274 1.92.316 3.484.456 4.657.4.79-.038 1.514-.152 2.183-.327-.266.48-.468.875-.596 1.172l-.007.016-.004.016.241.068-.241-.068c0-.001 0 .001-.002.005-.001.004-.003.009-.005.017-.005.014-.012.033-.021.057-.017.047-.042.112-.073.194-.072.162-.125.294-.156.388-.025.076-.068.195-.131.361-.062.165-.107.314-.136.45h-.001c-.001.005-.003.012-.004.016-.001.003-.002.006-.003.009-.035.116-.07.246-.101.394v.001c0 .001-.001.002-.001.003-.035.152-.061.3-.076.443-.016.144-.021.279-.015.406.018.372.141.691.385.929l-.001.001c.001.001.002.001.003.002s.001.002.002.003l.001-.001c.237.238.541.345.886.328.628-.03 1.307-.458 2.029-1.179.508-.507 1.059-1.189 1.648-2.022-.202.904-.304 1.618-.281 2.099.029.602.174 1.095.476 1.433.312.347.752.489 1.273.465.785-.037 1.624-.473 2.512-1.243.904-.774 1.688-1.713 2.351-2.815h.001c.674-1.101 1.09-2.141 1.236-3.118l.001-.012c.005-.048.009-.084.013-.125.012.007.025.015.036.021.021.013.026.016.047.028.02.012.026.016.045.027s.001 0 .001.001 0 0 .001.001c1.195.73 2.607 1.05 4.224.973 1.323-.063 3.052-.432 5.18-1.096l.005-.002-.075-.221-.006-.018.081.239c.124-.042.243-.101.332-.19.097-.096.153-.222.146-.366-.006-.124-.052-.257-.174-.347-.106-.085-.24-.101-.355-.096zm-33.303-9.952-.193-.162c-.627.746-1.206 1.419-1.763 2.06.172-.237.336-.467.512-.707h-.001c1.091-1.489 1.919-2.602 2.484-3.34.565-.74 1.011-1.316 1.337-1.727.032-.037.104-.127.217-.27.13-.154.253-.299.365-.433-.001.003-.002.004-.003.007-.165.341-.408.755-.733 1.245-.651.97-1.456 2.025-2.415 3.166zm3.166-5.133-.014-.015-.002-.003zm-.318.448-.078-.065zm-.453.381c-.001 0-.001 0 0 0zm.631 17.769.007.005.142.121zm1.101-1.057.102.093c.054-.059.13-.138.213-.221.021.059.039.121.043.199.025.538-.228 1.245-.826 2.136-.299.44-.564.76-.793.97-.22.202-.375.27-.479.282l-.062-.019c-.075-.051-.132-.135-.14-.308-.003-.074.009-.166.047-.279l.002-.008.003-.008-.243-.062h-.001l.245.063c.029-.117.073-.236.132-.358l.003-.007.003-.007c.047-.116.118-.247.215-.395.103-.154.2-.292.292-.414l.006-.008c.09-.129.2-.271.331-.426l.005-.006c.131-.165.246-.295.344-.393l.008-.008.008-.009-.192-.158-.002-.002.194.161c.093-.113.206-.243.34-.39.135-.148.231-.249.292-.307l.007-.007.007-.007zm-1.754 3.718v-.001zm-19.318.537-.003-.004zm-1.968-5.197c.004.085.021.167.049.245-.516.055-1.056.189-1.627.434-.385.165-.893.444-1.499.81.291-.337.628-.695 1.024-1.081l-.143-.147.003.003.14.143.001-.001c.425-.42.806-.731 1.143-.939.339-.209.619-.304.846-.315.12-.006.2.024.262.075.07.058.091.11.093.16 0-.001.001.011-.012.041-.012.03-.035.07-.075.122-.052.069-.096.135-.13.197-.032.058-.064.13-.074.208l-.002.021zm-4.67 12.589c-1.026 1.214-1.693 1.963-2.012 2.262l.172.184-.018-.018-.155-.165-.002.002c-.758.727-1.397 1.297-1.919 1.713-.542.424-.903.677-1.097.776l-.005.002c-.119.065-.254.127-.397.187.152-.549.518-1.213 1.132-2.001.633-.812 1.408-1.634 2.328-2.466.926-.837 1.804-1.589 2.634-2.257l-.158-.196.034.042.124.154.001-.001c.594-.484 1.196-.934 1.797-1.386-.791 1.095-1.606 2.157-2.459 3.168l.193.163zm-5.53 4.981-.166-.042h-.001zm8.599-8.619.023.016.01.007zm42.459-7.195-.041-.022zm-2.043 2.697-.033-.034zm-10.993-4.141.003-.029zm-7.456 1.41-.033-.049zm-3.307 2.161-.032-.05zm1.158-13.252.006.006zm-7.67 6.879-.013-.016-.127-.164zm-13.569 2.45-.036-.035zm3.539 7.202.003.002zm6.315 1.611-.007.008zm4.865-.621-.086-.172zm8.283-5.389-.009-.013.13.187zm.497 2.256s0 .001 0 0l-.128.135zm3.553-2.126.006.003zm14.937 2.516.003.003zm2.3-2.755.04.024zm1.331-3.518-.08.088z"></path><path d="m193.461 34.217c-.002-.003-.006-.004-.009-.006-.003-.003-.004-.007-.007-.01l-.002.003c-.096-.096-.22-.158-.367-.151-.146.007-.278.068-.393.153l-.006.005.156.199-.156-.199c-.488.382-1.151.604-2.01.645-.899.043-1.809-.105-2.735-.446-.462-.172-.826-.348-1.097-.525-.273-.178-.437-.347-.522-.5-.077-.148-.18-.273-.318-.358-.14-.087-.299-.122-.465-.114-.272.013-.56.143-.854.346-.299.205-.63.502-.99.882l-.002.002.182.169.003.003-.185-.172c-.31.333-.782.906-1.396 1.687.419-.852.996-1.988 1.753-3.446l.009-.016.006-.017-.238-.082.239.083c-.006.015-.011.017-.002.008.008-.009.024-.023.052-.043l-.001-.002c.113-.071.208-.161.283-.27s0-.001.001-.001c.001-.001.002-.001.002-.002l-.001-.001c.106-.153.142-.335.133-.524-.01-.217-.078-.419-.238-.565-.151-.137-.337-.196-.539-.186-.143.007-.279.048-.396.133-.112.081-.189.194-.244.319l-.003-.002c-1.742 3.501-2.994 6.324-3.754 8.463l.237.084-.002-.001-.235-.084-.003.008-.002.008c-.04.14-.061.276-.055.404.007.156.063.3.172.416.098.104.233.184.399.176.18-.008.343-.089.441-.257l.002.001c-.001.001 0-.001.005-.008.004-.007.011-.016.018-.027.016-.023.038-.055.067-.096.057-.081.137-.195.242-.343l-.205-.146h.001l.205.146.005-.008c.199-.305.343-.515.433-.634l.007-.009.006-.01c.081-.13.239-.361.478-.699.238-.337.428-.598.569-.785l.004-.005-.205-.147.205.147c.142-.198.332-.455.571-.771.247-.326.456-.586.625-.783l-.184-.158h.001l.183.158.004-.005c.17-.208.37-.439.6-.692l-.186-.169.19.166c.228-.262.425-.468.592-.621l.001-.001-.131-.141-.035-.038.166.179c.18-.167.36-.318.539-.454l-.152-.201.152.201.002-.002c.122-.094.229-.162.328-.218.363.525 1.006.959 1.908 1.313l.002.001c1.029.393 2.091.564 3.184.512 1.167-.055 2.131-.37 2.87-.965l.003-.002-.16-.193-.001-.001.161.194c.162-.134.269-.314.259-.535-.007-.145-.07-.268-.17-.366zm-5.617.429.002-.006zm-7.751 5.665-.008-.005z"></path><path d="m225.502 37.741.012.005.098-.233z"></path><path d="m17.787 26.174-.001.002.233.097z"></path><path d="m333.553 32.041-.034-.111-.003-.01c-.043-.163-.109-.314-.215-.426-.117-.124-.27-.186-.441-.178-.061.003-.146.026-.221.048-.088.026-.203.063-.345.111l.001.002c-.193.055-.352.169-.451.346-.097.174-.127.385-.116.609.006.126.026.25.073.354.051.11.142.216.289.253l.015.004.016.002.369.044.03-.251-.03.251.04.005.04-.008.197-.04.01-.002.009-.003c.215-.061.4-.174.548-.338l.007-.008c.145-.173.233-.373.222-.595l-.001-.031zm-.405.493.006.005.129.118z"></path><path d="m203.958 36.956.008.011.205-.146z"></path><path d="m144.968 53.306.162.193-.159-.195z"></path><path d="m18.837 22.13-.007.012.221.122z"></path><path d="m338.059 21.419.001-.001-.232-.101z"></path><path d="m2.361 55.408-.003.01.245.061z"></path><path d="m22.508 52.585c0-.002-.002-.003-.003-.005s-.001-.003-.002-.005h-.001c-.054-.094-.109-.179-.169-.246-.055-.061-.131-.119-.221-.155l.003-.006c-.006-.003-.014-.004-.02-.007-.001 0-.002-.002-.003-.002v.001c-.707-.301-1.697-.41-2.949-.351-1.888.09-4.111.511-6.666 1.257h-.001c-2.538.754-4.747 1.514-6.627 2.279-.648.26-1.166.455-1.553.586-.4.135-.632.192-.728.197-.047.002-.079-.001-.099-.006-.01-.002-.017-.005-.02-.006-.002-.001-.003-.002-.004-.002s0 0 0-.001c-.002-.004-.007-.018-.008-.047-.002-.035.009-.116.054-.259.044-.137.113-.312.21-.526.194-.427.491-.995.894-1.705l.001-.001-.204-.115-.01-.006.214.12c.441-.784 1.297-2.282 2.568-4.494 1.281-2.222 2.392-4.156 3.333-5.801.952-1.658 2.066-3.649 3.342-5.974 1.286-2.336 2.359-4.341 3.219-6.015.87-1.687 1.647-3.314 2.329-4.881.681-1.564 1.104-2.758 1.256-3.569l-.248-.046.248.046.002-.009.001-.009.065-.569.002-.02-.001-.02c-.011-.242-.199-.388-.375-.474-.001-.001-.002-.001-.004-.001-.003-.001-.005-.003-.008-.004l-.001.001c-.193-.101-.398-.15-.614-.139-.187.009-.362.055-.519.143l-.014.008-.013.009c-.123.091-.23.22-.325.372l.214.134-.221-.122c-.081.147-.141.289-.164.422l-.005.027.001.028c.009.181.135.302.241.374.005.004.007.006.011.008l-.008.042c-.182.763-.553 1.805-1.12 3.131l.232.099-.233-.098c-.555 1.324-1.316 2.934-2.284 4.832l.225.115-.008 0-.219-.112c-.96 1.89-1.836 3.592-2.63 5.107l.215.112.008.004-.224-.117c-.783 1.503-1.832 3.436-3.146 5.802l.201.112-.01-.006-.191-.106c-1.305 2.356-2.23 4.015-2.774 4.977v.001c-.535.953-1.372 2.435-2.509 4.445-.065.115-.234.407-.508.879-.274.473-.482.842-.624 1.107s-.312.597-.508.995c-.199.405-.347.767-.44 1.085l.242.071-.245-.061c-.081.324-.119.617-.107.873.016.332.131.617.382.807.241.182.565.242.929.225.608-.029 1.538-.318 2.765-.834 3.115-1.233 6.403-2.16 9.864-2.782l-.045-.248.001.005.044.243h.001c1.481-.274 2.663-.43 3.552-.473.409-.019.903-.004 1.483.048.009.001.015.003.025.016.016.021.04.068.057.161l.002.01c.028.124.062.236.106.325.033.067.108.167.228.215l-.004.009c.009.004.018.001.027.004.007.002.01.009.017.01l.002-.007c.074.024.15.04.222.037.142-.007.269-.073.376-.154.105-.08.21-.191.314-.321l.001.001c.001-.001.001-.002.002-.003.003-.004.006-.005.009-.009l-.003-.003c.1-.121.113-.279.108-.398-.009-.193-.088-.392-.208-.587z"></path><path d="m258.457 34.613-.001.001.134.214z"></path><path d="m78.487 40.302v.001l.237.086z"></path><path d="m63.221 40.71c-.032-.129-.09-.256-.193-.349-.109-.099-.245-.139-.384-.132l.012.252-.012-.252-.031.002-.03.009-.117.035c-5.929 1.7-10.362 3.333-13.289 4.901l.119.222-.001-.002-.118-.221-.004.002c-.061.034-.092.039-.099.039-.019.001-.052.002-.106-.082l-.006-.01-.007-.009-.199.154.2-.154c-.077-.099-.229-.292-.454-.573-.216-.283-.376-.496-.484-.642-.107-.155-.237-.349-.39-.584-.146-.226-.248-.427-.311-.603-.064-.181-.098-.349-.105-.503-.012-.25.052-.453.185-.624.717-.913 1.691-1.741 2.929-2.482 1.25-.748 2.217-1.115 2.915-1.149.21-.01.324.037.388.095.063.057.119.166.13.371l-.012.183c-.027.03-.068.071-.128.126-.165.152-.259.349-.288.575l.25.032-.25-.032-.003.022.001.022c.01.212.12.381.285.503l.15-.203-.15.202.006.004.006.004c.141.092.29.155.448.176l.033-.25-.033.25.023.003.023-.001c.179-.008.356-.055.531-.135l-.016-.034.016.034.007-.004-.112-.225.112.226c.191-.094.357-.234.421-.44l-.241-.075.241.075.003-.01c.123-.461.186-.841.172-1.125-.024-.513-.213-.931-.586-1.215l.001-.001c-.001-.001-.003-.001-.004-.002s-.002-.002-.004-.003l-.001.001c-.363-.29-.858-.4-1.447-.372-1.078.051-2.302.519-3.666 1.368-1.35.837-2.397 1.733-3.131 2.692-.001.001-.002.002-.002.004-.001.002-.003.003-.004.005h.001c-.345.42-.506.914-.479 1.469.012.247.057.492.136.733.079.244.208.511.38.799l.216-.13-.213.135c.009.015.023.037.032.051.001.001.015.024.016.025.006.01.009.015.016.025.003.004.013.02.015.024.006.009.009.015.015.024.006.01.023.037.029.046.004.006.004.006.007.011.002.003 0 0 .002.003 0 0 .002.003.002.003s.003.005.004.006c.01.016.004.006.014.022.002.003.005.008.007.011 0 0 .007.011.007.011.001.001.013.02.014.021s.026.041.026.041c.001.001.012.019.013.02.003.005.004.005.006.01 0 0 .003.005.003.005s.003.005.003.005c.006.01.006.01.012.019.001.002.011.017.012.019.011.017.013.02.023.036 0 0 .011.017.011.018s.005.008.005.009c0 0 .003.004.003.004.002.003.001.001.003.004.005.008.005.009.011.017.001.002.009.015.01.016.001.002.019.031.02.032.001.002.008.013.01.015 0 0 .009.015.009.015s.001.001.001.002c0 0 .001.002.001.002s.002.003.002.004c.001.001.004.006.005.007 0 .001.008.013.009.014.002.003.016.025.017.027l.008.011.204-.146.001-.001-.205.146c.101.142.289.392.56.745l.005.006c.278.339.44.538.495.608.035.052.055.083.078.119-.035.03-.062.056-.122.101-.233.152-.437.295-.607.427s-.001.001-.002.002c0 0 0 0-.001 0-.166.126-.354.288-.562.485-.224.212-.398.443-.516.695-.117.253-.172.515-.16.782.015.306.14.562.377.745l-.002.002c.002.002.005.002.008.004.002.002.003.004.005.006l.002-.002c.227.188.511.265.828.25.538-.026 1.135-.292 1.782-.752l-.145-.204-.001-.001.146.205c.6-.427.927-.962.896-1.601-.005-.103-.034-.227-.075-.361-.029-.096-.078-.221-.125-.342.02-.016.032-.026.065-.049 1.611-.903 3.621-1.793 6.033-2.668 2.42-.878 4.734-1.634 6.94-2.268l-.07-.242v.001l.069.242.013-.004.012-.005c.126-.051.242-.123.326-.23.088-.111.127-.243.12-.382l-.001-.025zm-14.963 7.276-.001-.002-.14-.207-.002.002c-.308.214-.551.309-.758.35.015-.026.022-.045.044-.076.101-.141.261-.311.489-.509h.001c.236-.207.427-.357.576-.455.048-.032.08-.047.116-.066.004.032.007.062.009.107.008.173-.097.392-.475.648zm14.278-7.469v-.001zm-14.236 4.179.002-.002zm5.486-5.786.004.004zm-4.107-.595-.017-.027zm-2.067 6.72-.066.05zm-.198 1.615-.001-.002z"></path><path d="m140.899 36.701c-.002-.002-.006-.004-.008-.006s-.004-.005-.006-.008l-.002.002c-.097-.097-.225-.172-.383-.165l-.041.002-.038.015-.18.07-.032.012-.027.02.15.203-.15-.203s-.001 0-.003.002c-.001.001-.004.003-.007.005-.006.004-.014.01-.025.017-.02.014-.049.033-.084.056-.072.047-.172.112-.302.196-.259.167-.634.408-1.123.722-.98.628-1.674 1.061-2.085 1.302l.127.217-.002-.003-.125-.215-.003.001c-.403.242-1.005.59-1.808 1.046-.798.443-1.463.759-1.997.952-.536.194-.996.302-1.382.33-.758.036-1.345-.093-1.781-.36-.424-.269-.64-.64-.663-1.136-.008-.165.01-.361.054-.589.027-.098.06-.149.085-.174.021-.021.046-.034.09-.036l.229-.011c.743-.035 1.512-.21 2.304-.521.792-.31 1.455-.702 1.981-1.178.529-.481.84-.988.815-1.518-.017-.355-.17-.649-.452-.858l.001-.001c-.001-.001-.002-.001-.003-.002s-.001-.001-.002-.002l-.001.001c-.273-.208-.626-.287-1.027-.268-.782.037-1.646.364-2.586.95-.833.515-1.486 1.124-1.973 1.817-.094.061-.181.115-.274.175-.134.025-.261.064-.369.135-.096.065-.168.15-.226.244-1.928 1.22-3.632 2.186-5.082 2.866-1.737.815-3.112 1.234-4.135 1.283-.961.046-1.707-.215-2.268-.76-.531-.526-1.002-1.321-1.409-2.376.02-.004.043-.009.056-.009.349-.017.769-.115 1.251-.284l.007-.002c.758-.29 1.675-.809 2.748-1.548l.002-.001-.145-.207.145.207c.54-.378.956-.729 1.237-1.055.275-.32.451-.651.435-.982-.012-.239-.145-.421-.338-.548l.001-.001c-.001-.001-.003-.001-.004-.002-.002-.001-.003-.003-.005-.005l-.001.002c-.205-.143-.459-.195-.736-.182-.585.028-1.412.322-2.461.841h-.001c-1.034.508-1.8.92-2.288 1.237-.448.281-.812.515-1.104.708s0 0-.001 0 0 0-.001 0c0 0 0 0-.001 0s0 0-.001 0-.001 0-.001 0h-.001s0 0-.001 0c-.064.003-.122.022-.172.05-.037.01-.074.01-.11.032-.068.042-.114.103-.148.17l-.004-.002c-.018.034-.036.061-.053.088-.699.501-1.35 1.02-1.973 1.549 3.865-6.969 6.749-12.017 8.631-15.106l.005-.01c.053-.096.161-.222.347-.375.188-.156.334-.308.432-.458l.001.001c.001-.001.001-.003.002-.004.008-.012.021-.024.028-.036l-.008-.005c.038-.056.07-.116.081-.169.014-.068.016-.142.013-.215-.01-.2-.084-.383-.209-.547l-.013-.018-.017-.015c-.242-.219-.585-.291-.972-.273-.111.005-.219.022-.314.058-.093.036-.185.099-.246.201l-.002-.001c-.96 1.539-1.942 3.225-2.948 5.061v.001l.16.087.054.029-.214-.116c-.994 1.833-2.09 3.894-3.286 6.185-1.076 2.059-1.953 3.707-2.652 4.988-.356.299-.978.756-1.913 1.396-1.046.716-2.287 1.448-3.722 2.196-1.427.738-2.494 1.105-3.22 1.139-.337.016-.551-.07-.69-.216-.146-.153-.249-.414-.269-.831-.017-.36.021-.746.119-1.159.097-.414.228-.737.388-.979l-.21-.139.029.019.181.12.001-.001c.244-.375.504-.755.778-1.142.287-.391.489-.666.604-.825l.004-.007c.062-.091.114-.178.15-.26.034-.077.064-.171.059-.269-.008-.177-.098-.32-.228-.424-.124-.098-.27-.157-.434-.149-.112.005-.251.038-.357.136l-.004-.005-1.584 1.341c-.097-.092-.211-.167-.345-.218l.001-.002c-.003-.001-.007-.002-.01-.003-.002-.001-.003-.002-.005-.003v.001c-.216-.093-.44-.138-.669-.127-.82.039-1.611.539-2.376 1.412s-.001.001-.001.001-.001.001-.001.001c-.025.027-.041.053-.065.081-1.05.823-2.494 1.823-4.35 3.006-1.152.734-2.137 1.288-2.955 1.662-.823.377-1.459.563-1.919.585-.322.015-.523-.062-.649-.186-.13-.128-.225-.349-.242-.712-.017-.358.075-1.005.295-1.964.228-.952.345-1.633.327-2.01-.014-.293-.079-.556-.234-.746-.166-.204-.402-.286-.664-.274-.218.01-.469.087-.743.209-.278.124-.596.302-.953.532-.71.456-1.402.952-2.076 1.489l.155.195-.002-.003-.153-.192-.001.001c-.653.527-1.307 1.013-1.962 1.458l-.001.001.138.2.004.006-.142-.206c-.321.221-.587.384-.799.492-.037.019-.058.025-.091.04.028-.156.076-.353.153-.607.136-.448.346-1.028.631-1.742.293-.726.513-1.331.656-1.815.141-.475.218-.859.205-1.129-.012-.255-.084-.49-.258-.655-.176-.168-.413-.223-.663-.211-.523.025-1.167.329-1.913.848l-.001.001.144.205.001.001-.145-.206c-.744.524-1.533 1.197-2.368 2.018l-.001.001.17.171.002.003-.173-.174c-.82.816-1.56 1.587-2.222 2.315 0 0 0 0-.001.001s0 0-.001.001c-.135.147-.26.299-.394.446.369-.657.757-1.339 1.167-2.048.857-1.478 1.507-2.594 1.95-3.349l.001-.001c.222-.384.39-.685.502-.902.056-.108.1-.199.131-.27.015-.036.029-.071.039-.103.008-.024.023-.076.02-.134-.009-.18-.077-.353-.235-.468l.002-.003c-.003-.002-.007-.003-.009-.005-.002-.001-.002-.003-.004-.005l-.001.002c-.12-.088-.288-.147-.474-.189l-.056.246.056-.246-.034-.008-.034.002c-.222.011-.426.057-.589.161-.172.11-.279.275-.315.475l-.009.051.012.051.246-.057-.246.057.03.13c0 .013-.002.041-.024.104-.023.065-.061.148-.118.25-.948 1.591-2.416 4.282-4.403 8.07-.434.691-.762 1.259-.98 1.701-.11.222-.194.417-.25.583-.055.16-.09.316-.084.45.006.132.044.277.156.384.115.11.262.139.396.133.099-.005.204-.037.306-.078.106-.043.227-.103.361-.179.031-.018.055-.04.059-.044.01-.009.021-.02.03-.03.02-.021.045-.047.074-.08.058-.065.139-.158.242-.278.206-.24.505-.595.896-1.062l-.191-.16h.001l.19.159.001-.001c.779-.942 1.637-1.955 2.573-3.038.941-1.077 1.94-2.091 2.998-3.043l.001-.001-.167-.183-.003-.003.17.187c.527-.479.987-.848 1.38-1.11.205-.136.385-.239.546-.315-.032.11-.069.234-.118.387-.136.422-.334.988-.596 1.697l.237.087-.237-.086c-.258.71-.451 1.312-.576 1.806-.124.489-.187.889-.172 1.187.014.304.097.575.291.765.197.194.466.262.759.248.248-.012.562-.134.921-.324.369-.195.818-.478 1.345-.848 1.048-.735 2.046-1.467 2.993-2.197.476-.363.847-.633 1.117-.813.092-.061.151-.094.216-.133-.013.077-.029.167-.055.288-.057.271-.146.645-.265 1.124v.002l.239.058.006.002-.245-.059c-.232.958-.34 1.739-.312 2.334.027.573.195 1.075.513 1.494l.122-.092-.122.092.005.006.196-.158-.196.158c.356.442.886.627 1.532.597.713-.034 1.624-.333 2.719-.869 1.098-.537 2.204-1.186 3.319-1.949.822-.557 1.547-1.06 2.177-1.51-.001.04-.015.082-.013.121.009.185.067.353.168.499.019.043.041.078.057.094.029.031.062.054.088.07.053.033.119.064.191.093l.053-.132-.053.132.009.003c.153.055.31.081.468.074.115-.005.221-.042.323-.093l.002.006c.329-.111.796-.425 1.383-.9.573-.464 1.093-.906 1.564-1.328-.251.66-.377 1.312-.346 1.953.028.59.195 1.089.52 1.474l.082-.069-.082.07.006.006.187-.168-.187.169c.358.397.884.555 1.521.525.887-.042 2.08-.443 3.561-1.169 1.482-.726 2.782-1.455 3.9-2.188.034-.022.061-.041.094-.063l-1.901 3.328.001.001c-.07.118-.09.252-.083.383.009.204.099.381.243.525.139.139.314.236.519.226.183-.009.329-.106.416-.261.648-1.155 1.425-2.216 2.333-3.183l.001-.001-.18-.167-.005-.005.185.172c.901-.97 1.956-1.924 3.166-2.861l.006-.005c.022-.018.032-.023.049-.035l.005.01c.183.43.332.779.447 1.049l.004.007.227-.106h.001l-.228.106c.126.272.28.589.461.948h-.001l.005.008c.193.355.377.645.552.867.17.216.377.444.617.683l.142-.143-.142.143.004.004c.251.238.515.427.792.56l.11-.227v.001l-.11.227.012.005c.276.117.585.214.926.293l.04-.174-.04.174.007.001c.353.07.732.095 1.136.076 1.153-.055 2.652-.525 4.484-1.383 1.438-.674 3.102-1.602 4.975-2.765-.043.253-.069.498-.058.727.041.863.428 1.547 1.147 2.029l.002.001.117-.179.021-.032-.138.211c.71.466 1.623.659 2.716.607l.152-.007h.005c.576-.039 1.323-.282 2.229-.706l.002-.001-.109-.227.109.227c.903-.433 1.696-.856 2.378-1.271.677-.411 1.546-.964 2.605-1.657l-.138-.211.031.046.108.164.001-.001c1.06-.704 1.692-1.118 1.905-1.248l-.003-.005c.095-.05.183-.117.242-.214.063-.105.085-.222.08-.339-.008-.156-.084-.283-.188-.383zm-10.785.82c.42-.43.888-.804 1.425-1.1l.001-.001c.611-.343 1.118-.511 1.529-.534l.176.023c-.025.081-.093.207-.257.388-.201.21-.576.458-1.154.736-.491.23-1.072.387-1.72.488zm-13.083-.579-.036-.059-.092-.154h-.001c-.762.461-1.386.744-1.89.878.778-.482 1.53-.91 2.243-1.251.265-.125.503-.229.728-.323-.307.213-.655.44-1.08.695zm-2.453 1.782v-.011zm-3.898.868.009.008.002.002zm-13.835.806c.091-.128.198-.264.339-.417l.002-.002c.396-.436.795-.692 1.197-.811zm34.534 1.125v-.001zm-15.473-.015-.002.002zm-.011-3.086.001.001.079.227zm-1.187-1.794-.015-.023zm-10.352 5.462-.089-.171zm-2.609-4.387.007.005.144.104zm-28.277 4.434-.004-.004zm19.223.676.005.007zm20.599-4.03.201-.064zm1.105 1.928-.018.009z"></path><path d="m154.14 40.849.001-.001-.229-.107z"></path><path d="m148.757 40.222v.007l.001.008.252-.012z"></path><path d="m320.37 26.592-.009-.01-.01-.009-.17.187z"></path><path d="m319.78 26.358-.029.001-.028.008.069.243z"></path><path d="m315.188 29.386.001-.001-.239-.083z"></path><path d="m263.73 30.874c-.004-.005-.011-.007-.016-.012-.006-.006-.008-.013-.014-.018l-.004.005c-.106-.113-.242-.174-.396-.166-.175.008-.318.095-.428.217-.536.589-1.167 1.21-1.896 1.862-.711.635-1.551 1.252-2.52 1.853l.133.214-.134-.214c-.957.599-1.728.891-2.325.919l-.081.004c-.269-.001-.486-.058-.66-.16-.174-.103-.321-.259-.436-.482-.245-.47-.401-1.184-.447-2.167-.035-.73-.041-1.285-.02-1.671l.001-.013-.001-.013-.251.012h-.001l.252-.012-.011-.244c-.016-.334-.091-.627-.262-.837-.182-.224-.441-.315-.733-.301h-.005c-.308.021-.668.156-1.07.374-.406.221-.876.54-1.408.952l-.003.002.142.177.014.018-.156-.195c-.845.675-2.014 1.766-3.494 3.254 1.165-2.33 2.141-4.01 2.925-5.031l-.003-.002c.048-.057.087-.125.121-.197l.001.001c.006-.009.009-.019.015-.028.002-.005.006-.009.009-.014h-.001c.095-.145.166-.305.158-.472-.006-.123-.055-.238-.151-.324-.138-.125-.308-.182-.492-.173-.206.01-.381.1-.519.251l.187.17-.187-.17-.007.008-.006.008c-.17.221-.507.551-1.027.995-.516.441-1.201.984-2.055 1.63-1.707 1.279-3.482 2.486-5.327 3.62h-.001l.132.213.001.002-.133-.215c-.917.567-1.672.992-2.266 1.278-.605.291-1.012.422-1.246.433-.026.001-.059-.01-.091-.019-.045-.053-.076-.116-.08-.209-.006-.127.021-.313.097-.568.074-.252.192-.557.355-.917.216-.476.516-1.049.885-1.702.049-.056.081-.119.106-.189.154-.269.319-.549.498-.847.016-.01.041-.024.083-.043l.009-.004.009-.005-.123-.22.123.22c.058-.032.111-.066.156-.104.042-.035.096-.087.128-.16.049-.109.077-.226.072-.346-.009-.186-.097-.34-.236-.456l.002-.002c-.002-.002-.005-.002-.006-.004-.002-.002-.003-.004-.005-.005l-.001.002c-.129-.114-.285-.189-.466-.181-.202.01-.354.125-.453.282l-.003.005.215.129h.001l-.216-.13c-.076.126-.289.484-.638 1.071v.001c-.069.117-.131.223-.191.327-2.325 1.516-4.335 2.674-6.017 3.463-1.737.815-3.112 1.234-4.135 1.282-.961.046-1.707-.215-2.268-.76-.532-.526-1.002-1.321-1.409-2.376.02-.004.043-.009.056-.009.349-.017.769-.115 1.251-.284l.007-.003c.757-.29 1.675-.809 2.748-1.547l.001-.001-.142-.204-.002-.003.144.207c.541-.378.957-.729 1.238-1.055.275-.32.451-.651.435-.982-.012-.239-.145-.421-.338-.548l.001-.001c-.001-.001-.003-.001-.004-.002-.002-.001-.003-.003-.005-.005l-.001.002c-.205-.143-.459-.195-.736-.182-.585.028-1.412.322-2.461.841h-.001c-1.035.508-1.8.92-2.288 1.237-.449.281-.812.515-1.104.708h-.001-.001-.001-.001s0 0-.001 0c-.001 0-.001 0-.001 0h-.001c-.064.003-.122.022-.172.05-.037.01-.074.01-.11.032-.068.042-.114.103-.148.17l-.004-.002c-.018.034-.036.061-.053.088-.699.501-1.35 1.02-1.973 1.549 3.865-6.969 6.749-12.017 8.63-15.106l-.211-.129.212.129.005-.009-.221-.122.221.122c.053-.096.161-.222.347-.375.188-.156.334-.308.432-.457l.001.001c.001-.001.001-.002.002-.003.008-.012.021-.024.028-.036l-.009-.005c.038-.056.07-.116.081-.169.014-.068.016-.142.013-.215-.01-.2-.084-.383-.209-.547l-.2.153.2-.153-.013-.018-.017-.015c-.242-.219-.585-.291-.972-.272-.111.005-.219.022-.314.059-.093.036-.185.099-.246.201l-.002-.001c-.96 1.538-1.942 3.225-2.948 5.061v.001l.172.093.05.027-.221-.12c-.994 1.833-2.09 3.894-3.286 6.185-1.02 1.952-1.86 3.533-2.542 4.786-5.807 1.675-10.167 3.285-13.054 4.832l-.004.002c-.061.034-.092.039-.099.039-.019.001-.053.002-.106-.082l-.006-.01-.007-.009c-.078-.1-.231-.293-.458-.578-.215-.283-.376-.497-.484-.642-.106-.154-.235-.347-.387-.58-.146-.226-.248-.427-.31-.603-.064-.181-.098-.349-.105-.504-.012-.25.052-.453.184-.624.717-.913 1.691-1.742 2.929-2.483 1.25-.748 2.217-1.115 2.915-1.149.21-.01.324.037.388.095.062.057.119.166.13.37l-.011.184c-.027.03-.068.07-.128.126l.001.001c-.165.152-.259.349-.288.575l-.003.022.001.022.252-.012-.252.012c.01.212.12.381.285.503l.15-.203-.138.211c.14.093.29.155.448.176l.033-.25-.033.25.022.003.023-.001c.179-.009.356-.056.531-.135l.007-.004c.191-.095.357-.234.421-.44l.003-.01c.123-.461.186-.841.172-1.125-.024-.513-.212-.931-.586-1.215l.001-.001c-.002-.001-.004-.002-.006-.004-.001-.001-.001-.002-.002-.002v.001c-.362-.29-.859-.4-1.448-.372-1.077.051-2.302.519-3.666 1.369-1.35.837-2.397 1.733-3.131 2.692-.002.003-.005.005-.007.008l.001.001c-.346.42-.506.914-.48 1.469.012.247.058.491.136.733.079.244.208.511.38.799l.216-.129-.006.004-.21.125.004.006c.009.015.023.037.032.051.001.001.016.024.016.025.006.01.01.015.016.025.002.004.013.02.015.024.006.009.01.015.015.024.007.01.024.037.03.046.003.006.003.006.007.011.002.003 0 0 .002.003 0 0 .001.003.002.003 0 0 .003.005.003.006.01.016.004.006.014.022.002.003.005.008.007.011 0 0 .007.011.007.011.001.001.013.02.014.021 0 .001.025.041.026.041.001.001.012.019.013.02.003.004.003.005.006.01 0 0 .003.005.003.005s.003.005.003.005c.006.01.006.009.012.019.001.002.012.017.012.019.011.017.013.02.024.036 0 0 .011.017.011.018s.005.008.005.009c.001 0 .003.004.003.004.002.003.001.001.003.004.005.008.005.009.011.017.001.002.009.015.01.016.001.002.02.031.02.032.002.002.009.013.01.015 0 0 .009.015.009.015.001 0 .001.001.001.002.001 0 .002.002.002.002s.002.003.002.004c.001.001.004.006.004.007.001.001.009.013.009.014.002.003.016.025.017.027l.213-.135-.205.146c.101.142.289.392.56.745l.1-.077-.1.077.005.006c.276.337.437.534.494.605.036.053.056.085.08.121-.034.03-.062.056-.122.101-.233.152-.437.295-.607.427-.167.127-.355.29-.564.487-.224.212-.398.443-.515.695-.118.253-.173.515-.16.782.015.306.141.562.377.745l-.002.003c.002.002.006.002.008.004s.003.004.005.006l.002-.002c.228.187.511.265.828.25.538-.026 1.135-.292 1.782-.752l-.146-.206.147.206c.6-.427.926-.962.896-1.601-.005-.103-.034-.227-.075-.361-.029-.096-.078-.221-.125-.341.021-.016.032-.027.066-.05 1.611-.903 3.62-1.792 6.031-2.667 1.944-.705 3.8-1.31 5.606-1.857l-2.572 4.502.001.001c-.07.118-.09.253-.083.384.009.204.099.381.243.525.139.139.314.236.519.226.183-.009.329-.106.416-.261.648-1.155 1.425-2.216 2.333-3.183l-.184-.173.184.173.001-.001c.901-.97 1.956-1.924 3.166-2.861l.006-.005c.022-.018.032-.023.049-.035l.005.01.232-.099-.201.064.201-.064-.232.099c.183.43.332.779.447 1.049l.232-.099-.232.099.003.007c.127.272.281.588.462.948h-.001l.005.008c.193.355.377.645.552.867.17.216.376.444.617.683l.004.004c.251.239.515.427.792.56l.11-.227-.098.232c.276.117.585.214.926.292l.057-.246-.003.016-.053.23.007.001c.353.07.732.095 1.136.076 1.153-.055 2.652-.525 4.484-1.383 1.379-.646 2.96-1.519 4.74-2.616-.203.422-.35.797-.429 1.115h.001c-.083.318-.119.62-.106.903.019.394.163.738.432 1.017l.182-.175-.004.004-.177.171.006.006.006.006c.197.179.465.235.755.222.41-.02.93-.175 1.548-.444.623-.271 1.365-.665 2.225-1.18 1.636-.98 3.728-2.422 6.246-4.294-.255.464-.513.947-.772 1.462-.328.64-.701 1.398-1.117 2.275-.418.876-.704 1.469-.861 1.779l-.011.022-.007.024-.052.186-.011.039.002.041.252-.012-.252.012c.008.173.086.326.199.454l.066-.058-.066.058.009.009.175-.172.005-.004-.18.176c.118.121.273.209.458.201.147-.007.273-.071.371-.174l.002.002c.255-.248.724-.715 1.405-1.4.69-.695 1.312-1.315 1.867-1.861.563-.545 1.166-1.117 1.808-1.717.649-.598 1.215-1.066 1.696-1.407.24-.17.443-.295.611-.377.05-.024.085-.036.126-.052-.004 1.165-.006 1.781-.005 1.817.06 1.249.294 2.23.731 2.912.446.698 1.096 1.068 1.925 1.097h.01l.01-.001-.012-.246.012.246.214-.01c.623-.03 1.3-.226 2.028-.575l-.109-.228.111.227c.735-.359 1.452-.815 2.153-1.367.692-.546 1.314-1.074 1.867-1.584.561-.51 1.082-1.023 1.562-1.54l.001-.002c.121-.133.183-.297.174-.477-.006-.14-.063-.264-.16-.365zm-43.69 3.515c0-.001 0-.001 0 0l.009.008.002.002zm27.873-3.167-.05-.028zm-.193-.232-.002-.003zm-21.328.752-.034-.057-.095-.159-.001.001c-.762.461-1.386.744-1.89.878.777-.482 1.53-.91 2.243-1.251.265-.125.503-.229.728-.323-.307.213-.655.44-1.08.695zm-2.65 1.808-.001-.015zm.008.177-.006-.131zm.194-.192-.006-.025zm-18.573 6.975-.019-.027-.122-.181-.002.002c-.308.214-.551.309-.758.35.015-.026.022-.045.044-.076.101-.142.261-.311.488-.509l-.162-.186.042.047.12.139h.001c.236-.207.427-.357.576-.455.048-.032.081-.047.117-.066.003.032.007.062.009.106.008.173-.097.392-.475.648zm48.122-10.608v-.002l-.01-.212zm-6.871 1.183-.002-.003zm-7.206.652-.216-.13zm-14.152 4.57.002-.002zm-.009-3.089.077.219zm-1.187-1.794-.014-.022zm-1.542 1.006c0 .001 0 .001 0 0zm-17.112 4.79.01-.008zm-1.104-3.265.065.051zm7.348-1.757.037.081zm4.526 6.742-.001-.001zm6.39-5.441c-.001-.001-.001-.002-.001-.002s.001.002.001.002zm1.183 2.008-.006.003zm12.866-.215-.002-.001zm13.987-2.669.002.003zm11.367.453.003.003z"></path><path d="m258.127 36.214.002-.001-.111-.226z"></path><path d="m206.136 41.191h.001l-.147-.206z"></path><path d="m210.727 32.377.006.004.006.004.138-.211z"></path><path d="m173.308 39.627h.009.008l-.012-.252z"></path><path d="m46.445 43.803.003.005.213-.135z"></path><path d="m47.608 33.161-.007-.252.007.252c.466-.012 1.008-.018 1.628-.017.634 0 1.355-.008 2.161-.026h.017l.016-.003c.255-.04.479-.11.643-.234.178-.134.275-.324.264-.55-.007-.144-.059-.275-.145-.389l.003-.002c-.003-.005-.009-.01-.012-.015-.003-.004-.004-.009-.008-.013l-.002.002c-.032-.048-.067-.097-.114-.135-.058-.047-.143-.092-.25-.087-.762.036-1.564.069-2.408.099s-1.375.05-1.591.06c-.724.035-1.879.1-3.465.195-1.575.095-2.794.164-3.657.205-.028.001-.046 0-.069 0 .034-.061.064-.116.117-.208l-.128-.075.128.075.001-.003c1.092-1.907 1.891-3.233 2.399-3.982l.002-.003-.211-.138.211.138c.069-.105.206-.287.418-.552l.003-.004c.125-.163.224-.3.309-.424.008.008.011.018.02.026l.17-.187-.17.187.008.008.009.007c.118.089.255.123.397.116.127-.006.247-.049.347-.134.083-.071.132-.167.174-.265l.006.004.965-1.575-.007-.004c.079-.113.1-.248.095-.356-.008-.173-.089-.318-.219-.426l.002-.002c-.002-.002-.006-.003-.008-.005s-.003-.004-.005-.006l-.001.002c-.119-.104-.264-.174-.433-.166-.204.01-.364.117-.469.283l-.004.007-.004.007.221.121-.221-.121-.421.772c-.12-.146-.279-.248-.483-.253l-.006.252.006-.252h-.009-.009c-.164.008-.342.086-.517.189-.001 0-.001.001-.002.002s-.002.001-.003.001c-.186.105-.338.239-.44.409l.215.129-.002-.001-.213-.128-.001.002c-.441.751-1.106 1.83-1.997 3.238l.213.135-.213-.135c-.881 1.397-1.465 2.328-1.749 2.792-.225.366-.519.542-.896.56l-.153.007h-.002c-5.059.281-9.209.571-12.45.867.023-.001.026.009-.003-.01-.029-.018-.071-.055-.127-.118-.19-.216-.452-.303-.746-.289l-.018.001-.018.003c-.279.053-.558.234-.834.492-.001.001-.001.001-.002.002s-.002.001-.003.002c-.136.122-.247.236-.325.342-.072.096-.15.229-.142.377v.01l.001.01.25-.033-.25.033c.032.247.217.4.422.491l.102-.231-.102.231.006.003c.187.076.377.113.57.104.116-.005.285-.047.484-.107.196-.059.336-.092.428-.105 3.261-.308 7.354-.594 12.279-.859.152-.007.259-.005.346.001-.049.09-.114.201-.203.348v.001l.207.125.009.005-.216-.131c-1.596 2.634-3.088 5.267-4.481 7.899-.014.009-.024.016-.042.028-.072.047-.172.112-.302.196-.259.168-.633.408-1.123.722-.979.628-1.674 1.061-2.085 1.302l-.002.001.125.209.001.001-.126-.21c-.403.242-1.006.59-1.808 1.045-.799.443-1.464.759-1.997.952-.536.194-.996.302-1.381.33-.758.036-1.345-.093-1.781-.36-.424-.269-.641-.64-.664-1.137-.008-.166.01-.363.055-.591.027-.095.059-.147.084-.171.021-.021.046-.034.09-.036l.229-.011c.743-.035 1.512-.21 2.304-.52.793-.31 1.455-.702 1.981-1.178l-.157-.173-.013-.014.17.187c.529-.481.84-.989.815-1.518-.017-.355-.17-.649-.452-.858l.001-.001c-.001-.001-.002-.001-.003-.001-.001-.001-.001-.002-.002-.002l-.001.001c-.273-.209-.626-.287-1.027-.268-.781.037-1.645.364-2.585.95s0 0-.001 0c-.893.552-1.585 1.209-2.079 1.966-.199.014-.384.06-.537.161-.166.111-.274.27-.328.462l-.011.039.002.041c.007.151.094.298.185.422.039.053.082.098.126.14-.1.39-.156.76-.14 1.097.041.863.428 1.547 1.147 2.029l.002.001c.71.466 1.623.659 2.716.607l.153-.007h.005c.576-.038 1.323-.282 2.229-.706l-.107-.228.109.227c.903-.433 1.696-.856 2.378-1.271.677-.411 1.546-.964 2.605-1.657l-.135-.207.003.004.133.203.001-.001c.056-.037.097-.065.151-.1-.005.009-.009.018-.014.027-1.692 3.322-2.713 5.711-3.044 7.148l-.026.093-.011.039.002.041c.008.161.074.302.19.413l-.002.002c.002.002.005.003.008.005s.003.006.006.008l.002-.002c.112.111.253.171.413.164.142-.007.281-.044.398-.13.119-.088.193-.21.232-.348l-.243-.068.243.068.003-.011c.313-1.345 1.37-3.723 3.196-7.157 1.822-3.425 3.807-6.848 5.954-10.268l-.214-.134h.001l.213.134.004-.006.004-.006c.13-.237.341-.37.684-.386l5.248-.25c1.017-.049 1.752-.079 2.207-.091zm-22.926 8.343c.611-.343 1.118-.511 1.528-.534l.176.023c-.024.081-.093.206-.257.387-.201.211-.576.458-1.155.737-.49.231-1.071.387-1.719.488.42-.43.888-.804 1.425-1.1l-.096-.173.096.173.002-.001-.122-.218-.001-.002zm14.644-9.623-.006-.004zm-1.753 1.398.001.01z"></path></svg>