<svg width="34" height="32" viewBox="0 0 34 32" fill="none" xmlns="http://www.w3.org/2000/svg">
<path d="M23.6366 20.5291L22.7801 21.3818C22.7801 21.3818 20.7415 23.4072 15.1791 17.8768C9.61675 12.3464 11.6554 10.321 11.6554 10.321L12.1937 9.78263C13.5245 8.46121 13.6507 6.3379 12.4892 4.78682L10.1175 1.6188C8.67933 -0.301218 5.90284 -0.555337 4.25576 1.08232L1.30045 4.01882C0.48538 4.832 -0.0605068 5.88236 0.00537604 7.04943C0.174789 10.0367 1.52633 16.4613 9.06333 23.9569C17.0578 31.9042 24.559 32.2205 27.6254 31.9343C28.5967 31.844 29.44 31.3508 30.1195 30.6731L32.7925 28.0152C34.5995 26.2213 34.0913 23.1437 31.7798 21.8881L28.1844 19.9324C26.6672 19.1098 24.8225 19.3507 23.6366 20.5291Z" fill="#9A563A"/>
</svg>
